<svg width="363" height="164" viewBox="0 0 363 164" fill="none" xmlns="http://www.w3.org/2000/svg">
<g filter="url(#filter0_d)">
<path d="M283.697 37.9625C283.819 37.8656 284 37.9562 284 38.1094V44.5C284 45.3281 283.328 46 282.5 46H269.5C268.672 46 268 45.3281 268 44.5V38.1125C268 37.9563 268.178 37.8687 268.303 37.9656C269.003 38.5094 269.931 39.2 273.119 41.5156C273.778 41.9969 274.891 43.0094 276 43.0031C277.116 43.0125 278.25 41.9781 278.884 41.5156C282.072 39.2 282.997 38.5063 283.697 37.9625ZM276 42C276.725 42.0125 277.769 41.0875 278.294 40.7063C282.441 37.6969 282.756 37.4344 283.712 36.6844C283.894 36.5437 284 36.325 284 36.0938V35.5C284 34.6719 283.328 34 282.5 34H269.5C268.672 34 268 34.6719 268 35.5V36.0938C268 36.325 268.106 36.5406 268.287 36.6844C269.244 37.4312 269.559 37.6969 273.706 40.7063C274.231 41.0875 275.275 42.0125 276 42Z" fill="#9AB8C9"/>
</g>
<g filter="url(#filter1_d)">
<path d="M335.914 43.376C335.914 43.1427 335.816 42.9513 335.62 42.802C335.433 42.6527 335.195 42.522 334.906 42.41C334.626 42.298 334.318 42.1907 333.982 42.088C333.646 41.976 333.333 41.8407 333.044 41.682C332.764 41.5233 332.526 41.3273 332.33 41.094C332.143 40.8607 332.05 40.5573 332.05 40.184C332.05 39.6613 332.26 39.2273 332.68 38.882C333.109 38.5273 333.777 38.35 334.682 38.35C335.037 38.35 335.401 38.378 335.774 38.434C336.157 38.4807 336.483 38.546 336.754 38.63L336.544 39.666C336.469 39.6287 336.367 39.5913 336.236 39.554C336.105 39.5073 335.956 39.47 335.788 39.442C335.62 39.4047 335.438 39.3767 335.242 39.358C335.055 39.3393 334.873 39.33 334.696 39.33C333.688 39.33 333.184 39.6053 333.184 40.156C333.184 40.352 333.277 40.52 333.464 40.66C333.66 40.7907 333.903 40.912 334.192 41.024C334.481 41.136 334.794 41.2527 335.13 41.374C335.466 41.486 335.779 41.626 336.068 41.794C336.357 41.962 336.595 42.1673 336.782 42.41C336.978 42.6433 337.076 42.942 337.076 43.306C337.076 43.894 336.847 44.3513 336.39 44.678C335.933 44.9953 335.209 45.154 334.22 45.154C333.772 45.154 333.361 45.1167 332.988 45.042C332.615 44.9673 332.26 44.8553 331.924 44.706L332.148 43.656C332.475 43.8053 332.815 43.9313 333.17 44.034C333.534 44.1273 333.921 44.174 334.332 44.174C335.387 44.174 335.914 43.908 335.914 43.376ZM341.626 38.35C342.503 38.35 343.18 38.6253 343.656 39.176C344.132 39.7173 344.37 40.5433 344.37 41.654V42.06H339.722C339.769 42.732 339.988 43.2453 340.38 43.6C340.781 43.9453 341.341 44.118 342.06 44.118C342.471 44.118 342.821 44.0853 343.11 44.02C343.399 43.9547 343.619 43.8847 343.768 43.81L343.922 44.79C343.782 44.8647 343.53 44.944 343.166 45.028C342.802 45.112 342.391 45.154 341.934 45.154C341.374 45.154 340.879 45.07 340.45 44.902C340.03 44.7247 339.68 44.4867 339.4 44.188C339.12 43.8893 338.91 43.5347 338.77 43.124C338.63 42.704 338.56 42.2513 338.56 41.766C338.56 41.1873 338.649 40.6833 338.826 40.254C339.003 39.8247 339.237 39.47 339.526 39.19C339.815 38.91 340.142 38.7 340.506 38.56C340.87 38.42 341.243 38.35 341.626 38.35ZM343.194 41.122C343.194 40.5713 343.049 40.1373 342.76 39.82C342.471 39.4933 342.088 39.33 341.612 39.33C341.341 39.33 341.094 39.3813 340.87 39.484C340.655 39.5867 340.469 39.722 340.31 39.89C340.151 40.058 340.025 40.2493 339.932 40.464C339.839 40.6787 339.778 40.898 339.75 41.122H343.194ZM345.994 38.686C346.414 38.5833 346.829 38.504 347.24 38.448C347.66 38.392 348.052 38.364 348.416 38.364C349.284 38.364 349.937 38.588 350.376 39.036C350.824 39.484 351.048 40.2027 351.048 41.192V45H349.9V41.402C349.9 40.982 349.863 40.6413 349.788 40.38C349.713 40.1187 349.606 39.918 349.466 39.778C349.335 39.6287 349.172 39.526 348.976 39.47C348.789 39.414 348.584 39.386 348.36 39.386C348.173 39.386 347.973 39.4 347.758 39.428C347.553 39.4467 347.352 39.4747 347.156 39.512V45H345.994V38.686ZM356.844 39.876C356.713 39.7547 356.522 39.6427 356.27 39.54C356.018 39.428 355.757 39.372 355.486 39.372C355.178 39.372 354.912 39.4327 354.688 39.554C354.473 39.6753 354.296 39.8433 354.156 40.058C354.016 40.2633 353.913 40.5153 353.848 40.814C353.783 41.1033 353.75 41.416 353.75 41.752C353.75 42.508 353.927 43.0913 354.282 43.502C354.637 43.9127 355.099 44.118 355.668 44.118C355.957 44.118 356.2 44.104 356.396 44.076C356.601 44.048 356.751 44.02 356.844 43.992V39.876ZM356.844 35.494L358.006 35.298V44.818C357.754 44.8927 357.432 44.9673 357.04 45.042C356.648 45.1167 356.191 45.154 355.668 45.154C355.201 45.154 354.777 45.0747 354.394 44.916C354.011 44.7573 353.685 44.5333 353.414 44.244C353.143 43.9453 352.933 43.586 352.784 43.166C352.635 42.746 352.56 42.2747 352.56 41.752C352.56 41.248 352.621 40.7907 352.742 40.38C352.873 39.96 353.059 39.6007 353.302 39.302C353.545 39.0033 353.834 38.77 354.17 38.602C354.515 38.434 354.907 38.35 355.346 38.35C355.691 38.35 355.995 38.392 356.256 38.476C356.517 38.56 356.713 38.6487 356.844 38.742V35.494Z" fill="#9AB8C9"/>
</g>
<g filter="url(#filter2_d)">
<rect x="268" y="49" width="91" height="78" rx="2" fill="#F2F2F2"/>
</g>
<path d="M273.932 89V84.26H272.756V83.432H273.932V82.928C273.932 82.496 273.992 82.14 274.112 81.86C274.232 81.572 274.388 81.34 274.58 81.164C274.78 80.988 275.008 80.864 275.264 80.792C275.528 80.72 275.804 80.684 276.092 80.684C276.38 80.684 276.668 80.716 276.956 80.78C277.252 80.844 277.528 80.92 277.784 81.008L277.604 81.86C277.428 81.772 277.208 81.696 276.944 81.632C276.68 81.568 276.412 81.536 276.14 81.536C275.972 81.536 275.812 81.56 275.66 81.608C275.516 81.648 275.388 81.724 275.276 81.836C275.164 81.94 275.076 82.084 275.012 82.268C274.948 82.444 274.916 82.668 274.916 82.94V83.432H277.16V84.26H274.916V89H273.932ZM279.284 89V83.732C280.1 83.452 280.924 83.312 281.756 83.312C282.012 83.312 282.256 83.324 282.488 83.348C282.72 83.364 282.976 83.404 283.256 83.468L283.076 84.344C282.82 84.272 282.592 84.228 282.392 84.212C282.2 84.188 281.988 84.176 281.756 84.176C281.268 84.176 280.772 84.244 280.268 84.38V89H279.284ZM289.52 86.216C289.52 86.656 289.456 87.056 289.328 87.416C289.208 87.768 289.036 88.072 288.812 88.328C288.588 88.584 288.32 88.784 288.008 88.928C287.696 89.064 287.356 89.132 286.988 89.132C286.628 89.132 286.292 89.064 285.98 88.928C285.676 88.784 285.412 88.584 285.188 88.328C284.964 88.072 284.788 87.768 284.66 87.416C284.54 87.056 284.48 86.656 284.48 86.216C284.48 85.776 284.54 85.376 284.66 85.016C284.788 84.656 284.964 84.352 285.188 84.104C285.412 83.848 285.676 83.652 285.98 83.516C286.292 83.372 286.628 83.3 286.988 83.3C287.356 83.3 287.696 83.372 288.008 83.516C288.32 83.652 288.588 83.848 288.812 84.104C289.036 84.352 289.208 84.656 289.328 85.016C289.456 85.376 289.52 85.776 289.52 86.216ZM288.5 86.216C288.5 85.584 288.364 85.088 288.092 84.728C287.82 84.36 287.452 84.176 286.988 84.176C286.532 84.176 286.168 84.36 285.896 84.728C285.632 85.088 285.5 85.584 285.5 86.216C285.5 86.84 285.632 87.336 285.896 87.704C286.168 88.064 286.532 88.244 286.988 88.244C287.452 88.244 287.82 88.064 288.092 87.704C288.364 87.336 288.5 86.84 288.5 86.216ZM290.492 83.588C290.972 83.404 291.424 83.312 291.848 83.312C292.08 83.312 292.296 83.348 292.496 83.42C292.704 83.484 292.88 83.588 293.024 83.732C293.368 83.452 293.736 83.312 294.128 83.312C294.32 83.312 294.5 83.348 294.668 83.42C294.844 83.492 294.996 83.6 295.124 83.744C295.26 83.888 295.368 84.068 295.448 84.284C295.528 84.5 295.568 84.752 295.568 85.04V89H294.668V85.016C294.668 84.728 294.604 84.508 294.476 84.356C294.348 84.204 294.188 84.128 293.996 84.128C293.9 84.128 293.8 84.152 293.696 84.2C293.592 84.248 293.496 84.324 293.408 84.428C293.456 84.612 293.48 84.816 293.48 85.04V86.852H292.58V85.028C292.58 84.748 292.536 84.528 292.448 84.368C292.36 84.208 292.188 84.128 291.932 84.128C291.772 84.128 291.592 84.164 291.392 84.236V89H290.492V83.588Z" fill="#B4B4B4"/>
<path d="M276.212 103.608C276.212 103.408 276.128 103.244 275.96 103.116C275.8 102.988 275.596 102.876 275.348 102.78C275.108 102.684 274.844 102.592 274.556 102.504C274.268 102.408 274 102.292 273.752 102.156C273.512 102.02 273.308 101.852 273.14 101.652C272.98 101.452 272.9 101.192 272.9 100.872C272.9 100.424 273.08 100.052 273.44 99.756C273.808 99.452 274.38 99.3 275.156 99.3C275.46 99.3 275.772 99.324 276.092 99.372C276.42 99.412 276.7 99.468 276.932 99.54L276.752 100.428C276.688 100.396 276.6 100.364 276.488 100.332C276.376 100.292 276.248 100.26 276.104 100.236C275.96 100.204 275.804 100.18 275.636 100.164C275.476 100.148 275.32 100.14 275.168 100.14C274.304 100.14 273.872 100.376 273.872 100.848C273.872 101.016 273.952 101.16 274.112 101.28C274.28 101.392 274.488 101.496 274.736 101.592C274.984 101.688 275.252 101.788 275.54 101.892C275.828 101.988 276.096 102.108 276.344 102.252C276.592 102.396 276.796 102.572 276.956 102.78C277.124 102.98 277.208 103.236 277.208 103.548C277.208 104.052 277.012 104.444 276.62 104.724C276.228 104.996 275.608 105.132 274.76 105.132C274.376 105.132 274.024 105.1 273.704 105.036C273.384 104.972 273.08 104.876 272.792 104.748L272.984 103.848C273.264 103.976 273.556 104.084 273.86 104.172C274.172 104.252 274.504 104.292 274.856 104.292C275.76 104.292 276.212 104.064 276.212 103.608ZM283.148 104.844C282.932 104.9 282.644 104.96 282.284 105.024C281.932 105.088 281.516 105.12 281.036 105.12C280.612 105.12 280.26 105.06 279.98 104.94C279.7 104.812 279.472 104.636 279.296 104.412C279.12 104.18 278.996 103.908 278.924 103.596C278.852 103.284 278.816 102.94 278.816 102.564V99.432H279.8V102.348C279.8 103.036 279.9 103.524 280.1 103.812C280.308 104.1 280.652 104.244 281.132 104.244C281.236 104.244 281.34 104.24 281.444 104.232C281.556 104.224 281.66 104.216 281.756 104.208C281.852 104.192 281.936 104.18 282.008 104.172C282.08 104.156 282.128 104.144 282.152 104.136V99.432H283.148V104.844ZM285.848 99.636C285.968 99.564 286.14 99.492 286.364 99.42C286.596 99.34 286.852 99.3 287.132 99.3C287.508 99.3 287.844 99.372 288.14 99.516C288.436 99.66 288.684 99.86 288.884 100.116C289.092 100.372 289.248 100.68 289.352 101.04C289.464 101.392 289.52 101.784 289.52 102.216C289.52 102.664 289.456 103.068 289.328 103.428C289.2 103.788 289.02 104.096 288.788 104.352C288.556 104.6 288.276 104.792 287.948 104.928C287.62 105.064 287.256 105.132 286.856 105.132C286.416 105.132 286.024 105.1 285.68 105.036C285.336 104.972 285.06 104.908 284.852 104.844V96.852L285.848 96.684V99.636ZM285.848 104.136C286 104.176 286.152 104.208 286.304 104.232C286.456 104.248 286.6 104.256 286.736 104.256C287.288 104.256 287.72 104.088 288.032 103.752C288.344 103.408 288.5 102.896 288.5 102.216C288.5 101.928 288.472 101.66 288.416 101.412C288.36 101.156 288.272 100.94 288.152 100.764C288.032 100.58 287.876 100.436 287.684 100.332C287.5 100.228 287.276 100.176 287.012 100.176C286.78 100.176 286.556 100.224 286.34 100.32C286.124 100.408 285.96 100.504 285.848 100.608V104.136ZM293.696 98.568C293.488 98.568 293.308 98.496 293.156 98.352C293.004 98.208 292.928 98.012 292.928 97.764C292.928 97.516 293.004 97.32 293.156 97.176C293.308 97.032 293.488 96.96 293.696 96.96C293.912 96.96 294.092 97.032 294.236 97.176C294.388 97.32 294.464 97.516 294.464 97.764C294.464 98.012 294.388 98.208 294.236 98.352C294.092 98.496 293.912 98.568 293.696 98.568ZM291.368 100.26V99.432H294.608V104.94C294.608 105.324 294.552 105.648 294.44 105.912C294.336 106.184 294.192 106.404 294.008 106.572C293.832 106.74 293.624 106.86 293.384 106.932C293.152 107.004 292.904 107.04 292.64 107.04C292.336 107.04 292.028 107.008 291.716 106.944C291.412 106.88 291.124 106.78 290.852 106.644L291.152 105.804C291.352 105.9 291.572 105.98 291.812 106.044C292.06 106.116 292.296 106.152 292.52 106.152C292.84 106.152 293.104 106.068 293.312 105.9C293.52 105.74 293.624 105.424 293.624 104.952V100.26H291.368ZM299.108 99.3C299.86 99.3 300.44 99.536 300.848 100.008C301.256 100.472 301.46 101.18 301.46 102.132V102.48H297.476C297.516 103.056 297.704 103.496 298.04 103.8C298.384 104.096 298.864 104.244 299.48 104.244C299.832 104.244 300.132 104.216 300.38 104.16C300.628 104.104 300.816 104.044 300.944 103.98L301.076 104.82C300.956 104.884 300.74 104.952 300.428 105.024C300.116 105.096 299.764 105.132 299.372 105.132C298.892 105.132 298.468 105.06 298.1 104.916C297.74 104.764 297.44 104.56 297.2 104.304C296.96 104.048 296.78 103.744 296.66 103.392C296.54 103.032 296.48 102.644 296.48 102.228C296.48 101.732 296.556 101.3 296.708 100.932C296.86 100.564 297.06 100.26 297.308 100.02C297.556 99.78 297.836 99.6 298.148 99.48C298.46 99.36 298.78 99.3 299.108 99.3ZM300.452 101.676C300.452 101.204 300.328 100.832 300.08 100.56C299.832 100.28 299.504 100.14 299.096 100.14C298.864 100.14 298.652 100.184 298.46 100.272C298.276 100.36 298.116 100.476 297.98 100.62C297.844 100.764 297.736 100.928 297.656 101.112C297.576 101.296 297.524 101.484 297.5 101.676H300.452ZM302.588 102.228C302.588 101.724 302.668 101.288 302.828 100.92C302.988 100.552 303.208 100.248 303.488 100.008C303.768 99.768 304.092 99.592 304.46 99.48C304.836 99.36 305.236 99.3 305.66 99.3C305.932 99.3 306.2 99.32 306.464 99.36C306.736 99.392 307.024 99.456 307.328 99.552L307.1 100.404C306.836 100.308 306.592 100.248 306.368 100.224C306.152 100.192 305.932 100.176 305.708 100.176C305.42 100.176 305.148 100.216 304.892 100.296C304.636 100.368 304.412 100.488 304.22 100.656C304.036 100.816 303.888 101.028 303.776 101.292C303.664 101.548 303.608 101.86 303.608 102.228C303.608 102.58 303.66 102.884 303.764 103.14C303.868 103.388 304.012 103.596 304.196 103.764C304.388 103.924 304.616 104.044 304.88 104.124C305.144 104.204 305.436 104.244 305.756 104.244C306.012 104.244 306.256 104.232 306.488 104.208C306.728 104.176 306.988 104.112 307.268 104.016L307.412 104.844C307.132 104.948 306.848 105.02 306.56 105.06C306.272 105.108 305.96 105.132 305.624 105.132C305.176 105.132 304.764 105.072 304.388 104.952C304.02 104.824 303.7 104.64 303.428 104.4C303.164 104.16 302.956 103.86 302.804 103.5C302.66 103.132 302.588 102.708 302.588 102.228ZM310.916 99.432H313.268V100.26H310.916V102.852C310.916 103.132 310.936 103.36 310.976 103.536C311.016 103.712 311.08 103.856 311.168 103.968C311.264 104.072 311.384 104.144 311.528 104.184C311.672 104.224 311.848 104.244 312.056 104.244C312.344 104.244 312.576 104.22 312.752 104.172C312.928 104.124 313.096 104.06 313.256 103.98L313.4 104.82C313.288 104.868 313.108 104.932 312.86 105.012C312.62 105.092 312.32 105.132 311.96 105.132C311.544 105.132 311.204 105.084 310.94 104.988C310.676 104.892 310.468 104.748 310.316 104.556C310.172 104.364 310.072 104.128 310.016 103.848C309.96 103.56 309.932 103.228 309.932 102.852V100.26H308.756V99.432H309.932V97.872L310.916 97.704V99.432Z" fill="#B4B4B4"/>
<path d="M273.848 115.636C273.968 115.564 274.14 115.492 274.364 115.42C274.596 115.34 274.852 115.3 275.132 115.3C275.508 115.3 275.844 115.372 276.14 115.516C276.436 115.66 276.684 115.86 276.884 116.116C277.092 116.372 277.248 116.68 277.352 117.04C277.464 117.392 277.52 117.784 277.52 118.216C277.52 118.664 277.456 119.068 277.328 119.428C277.2 119.788 277.02 120.096 276.788 120.352C276.556 120.6 276.276 120.792 275.948 120.928C275.62 121.064 275.256 121.132 274.856 121.132C274.416 121.132 274.024 121.1 273.68 121.036C273.336 120.972 273.06 120.908 272.852 120.844V112.852L273.848 112.684V115.636ZM273.848 120.136C274 120.176 274.152 120.208 274.304 120.232C274.456 120.248 274.6 120.256 274.736 120.256C275.288 120.256 275.72 120.088 276.032 119.752C276.344 119.408 276.5 118.896 276.5 118.216C276.5 117.928 276.472 117.66 276.416 117.412C276.36 117.156 276.272 116.94 276.152 116.764C276.032 116.58 275.876 116.436 275.684 116.332C275.5 116.228 275.276 116.176 275.012 116.176C274.78 116.176 274.556 116.224 274.34 116.32C274.124 116.408 273.96 116.504 273.848 116.608V120.136ZM283.52 118.216C283.52 118.656 283.456 119.056 283.328 119.416C283.208 119.768 283.036 120.072 282.812 120.328C282.588 120.584 282.32 120.784 282.008 120.928C281.696 121.064 281.356 121.132 280.988 121.132C280.628 121.132 280.292 121.064 279.98 120.928C279.676 120.784 279.412 120.584 279.188 120.328C278.964 120.072 278.788 119.768 278.66 119.416C278.54 119.056 278.48 118.656 278.48 118.216C278.48 117.776 278.54 117.376 278.66 117.016C278.788 116.656 278.964 116.352 279.188 116.104C279.412 115.848 279.676 115.652 279.98 115.516C280.292 115.372 280.628 115.3 280.988 115.3C281.356 115.3 281.696 115.372 282.008 115.516C282.32 115.652 282.588 115.848 282.812 116.104C283.036 116.352 283.208 116.656 283.328 117.016C283.456 117.376 283.52 117.776 283.52 118.216ZM282.5 118.216C282.5 117.584 282.364 117.088 282.092 116.728C281.82 116.36 281.452 116.176 280.988 116.176C280.532 116.176 280.168 116.36 279.896 116.728C279.632 117.088 279.5 117.584 279.5 118.216C279.5 118.84 279.632 119.336 279.896 119.704C280.168 120.064 280.532 120.244 280.988 120.244C281.452 120.244 281.82 120.064 282.092 119.704C282.364 119.336 282.5 118.84 282.5 118.216ZM288.152 116.608C288.04 116.504 287.876 116.408 287.66 116.32C287.444 116.224 287.22 116.176 286.988 116.176C286.724 116.176 286.496 116.228 286.304 116.332C286.12 116.436 285.968 116.58 285.848 116.764C285.728 116.94 285.64 117.156 285.584 117.412C285.528 117.66 285.5 117.928 285.5 118.216C285.5 118.864 285.652 119.364 285.956 119.716C286.26 120.068 286.656 120.244 287.144 120.244C287.392 120.244 287.6 120.232 287.768 120.208C287.944 120.184 288.072 120.16 288.152 120.136V116.608ZM288.152 112.852L289.148 112.684V120.844C288.932 120.908 288.656 120.972 288.32 121.036C287.984 121.1 287.592 121.132 287.144 121.132C286.744 121.132 286.38 121.064 286.052 120.928C285.724 120.792 285.444 120.6 285.212 120.352C284.98 120.096 284.8 119.788 284.672 119.428C284.544 119.068 284.48 118.664 284.48 118.216C284.48 117.784 284.532 117.392 284.636 117.04C284.748 116.68 284.908 116.372 285.116 116.116C285.324 115.86 285.572 115.66 285.86 115.516C286.156 115.372 286.492 115.3 286.868 115.3C287.164 115.3 287.424 115.336 287.648 115.408C287.872 115.48 288.04 115.556 288.152 115.636V112.852ZM290.612 122.044C290.684 122.084 290.784 122.116 290.912 122.14C291.048 122.164 291.172 122.176 291.284 122.176C291.676 122.176 291.98 122.088 292.196 121.912C292.42 121.744 292.624 121.464 292.808 121.072C292.36 120.224 291.94 119.316 291.548 118.348C291.156 117.372 290.832 116.4 290.576 115.432H291.656C291.736 115.752 291.828 116.1 291.932 116.476C292.044 116.844 292.168 117.224 292.304 117.616C292.44 118.008 292.584 118.404 292.736 118.804C292.896 119.196 293.064 119.572 293.24 119.932C293.368 119.564 293.488 119.2 293.6 118.84C293.712 118.48 293.816 118.12 293.912 117.76C294.008 117.392 294.104 117.02 294.2 116.644C294.296 116.26 294.396 115.856 294.5 115.432H295.532C295.276 116.472 294.988 117.48 294.668 118.456C294.356 119.432 294.02 120.336 293.66 121.168C293.524 121.488 293.376 121.764 293.216 121.996C293.064 122.228 292.896 122.42 292.712 122.572C292.528 122.724 292.32 122.836 292.088 122.908C291.856 122.98 291.592 123.016 291.296 123.016C291.144 123.016 290.976 122.996 290.792 122.956C290.616 122.916 290.496 122.88 290.432 122.848L290.612 122.044Z" fill="#B4B4B4"/>
<path d="M274.916 67.432H277.268V68.26H274.916V70.852C274.916 71.132 274.936 71.36 274.976 71.536C275.016 71.712 275.08 71.856 275.168 71.968C275.264 72.072 275.384 72.144 275.528 72.184C275.672 72.224 275.848 72.244 276.056 72.244C276.344 72.244 276.576 72.22 276.752 72.172C276.928 72.124 277.096 72.06 277.256 71.98L277.4 72.82C277.288 72.868 277.108 72.932 276.86 73.012C276.62 73.092 276.32 73.132 275.96 73.132C275.544 73.132 275.204 73.084 274.94 72.988C274.676 72.892 274.468 72.748 274.316 72.556C274.172 72.364 274.072 72.128 274.016 71.848C273.96 71.56 273.932 71.228 273.932 70.852V68.26H272.756V67.432H273.932V65.872L274.916 65.704V67.432ZM283.52 70.216C283.52 70.656 283.456 71.056 283.328 71.416C283.208 71.768 283.036 72.072 282.812 72.328C282.588 72.584 282.32 72.784 282.008 72.928C281.696 73.064 281.356 73.132 280.988 73.132C280.628 73.132 280.292 73.064 279.98 72.928C279.676 72.784 279.412 72.584 279.188 72.328C278.964 72.072 278.788 71.768 278.66 71.416C278.54 71.056 278.48 70.656 278.48 70.216C278.48 69.776 278.54 69.376 278.66 69.016C278.788 68.656 278.964 68.352 279.188 68.104C279.412 67.848 279.676 67.652 279.98 67.516C280.292 67.372 280.628 67.3 280.988 67.3C281.356 67.3 281.696 67.372 282.008 67.516C282.32 67.652 282.588 67.848 282.812 68.104C283.036 68.352 283.208 68.656 283.328 69.016C283.456 69.376 283.52 69.776 283.52 70.216ZM282.5 70.216C282.5 69.584 282.364 69.088 282.092 68.728C281.82 68.36 281.452 68.176 280.988 68.176C280.532 68.176 280.168 68.36 279.896 68.728C279.632 69.088 279.5 69.584 279.5 70.216C279.5 70.84 279.632 71.336 279.896 71.704C280.168 72.064 280.532 72.244 280.988 72.244C281.452 72.244 281.82 72.064 282.092 71.704C282.364 71.336 282.5 70.84 282.5 70.216Z" fill="#B4B4B4"/>
<g filter="url(#filter3_d)">
<path d="M46.686 28.766C46.686 28.178 46.7793 27.6693 46.966 27.24C47.1527 26.8107 47.4093 26.456 47.736 26.176C48.0627 25.896 48.4407 25.6907 48.87 25.56C49.3087 25.42 49.7753 25.35 50.27 25.35C50.5873 25.35 50.9 25.3733 51.208 25.42C51.5253 25.4573 51.8613 25.532 52.216 25.644L51.95 26.638C51.642 26.526 51.3573 26.456 51.096 26.428C50.844 26.3907 50.5873 26.372 50.326 26.372C49.99 26.372 49.6727 26.4187 49.374 26.512C49.0753 26.596 48.814 26.736 48.59 26.932C48.3753 27.1187 48.2027 27.366 48.072 27.674C47.9413 27.9727 47.876 28.3367 47.876 28.766C47.876 29.1767 47.9367 29.5313 48.058 29.83C48.1793 30.1193 48.3473 30.362 48.562 30.558C48.786 30.7447 49.052 30.8847 49.36 30.978C49.668 31.0713 50.0087 31.118 50.382 31.118C50.6807 31.118 50.9653 31.104 51.236 31.076C51.516 31.0387 51.8193 30.964 52.146 30.852L52.314 31.818C51.9873 31.9393 51.656 32.0233 51.32 32.07C50.984 32.126 50.62 32.154 50.228 32.154C49.7053 32.154 49.2247 32.084 48.786 31.944C48.3567 31.7947 47.9833 31.58 47.666 31.3C47.358 31.02 47.1153 30.67 46.938 30.25C46.77 29.8207 46.686 29.326 46.686 28.766ZM59.44 28.752C59.44 29.2653 59.3653 29.732 59.216 30.152C59.076 30.5627 58.8753 30.9173 58.614 31.216C58.3527 31.5147 58.04 31.748 57.676 31.916C57.312 32.0747 56.9153 32.154 56.486 32.154C56.066 32.154 55.674 32.0747 55.31 31.916C54.9553 31.748 54.6473 31.5147 54.386 31.216C54.1247 30.9173 53.9193 30.5627 53.77 30.152C53.63 29.732 53.56 29.2653 53.56 28.752C53.56 28.2387 53.63 27.772 53.77 27.352C53.9193 26.932 54.1247 26.5773 54.386 26.288C54.6473 25.9893 54.9553 25.7607 55.31 25.602C55.674 25.434 56.066 25.35 56.486 25.35C56.9153 25.35 57.312 25.434 57.676 25.602C58.04 25.7607 58.3527 25.9893 58.614 26.288C58.8753 26.5773 59.076 26.932 59.216 27.352C59.3653 27.772 59.44 28.2387 59.44 28.752ZM58.25 28.752C58.25 28.0147 58.0913 27.436 57.774 27.016C57.4567 26.5867 57.0273 26.372 56.486 26.372C55.954 26.372 55.5293 26.5867 55.212 27.016C54.904 27.436 54.75 28.0147 54.75 28.752C54.75 29.48 54.904 30.0587 55.212 30.488C55.5293 30.908 55.954 31.118 56.486 31.118C57.0273 31.118 57.4567 30.908 57.774 30.488C58.0913 30.0587 58.25 29.48 58.25 28.752ZM60.994 25.686C61.414 25.5833 61.8293 25.504 62.24 25.448C62.66 25.392 63.052 25.364 63.416 25.364C64.284 25.364 64.9373 25.588 65.376 26.036C65.824 26.484 66.048 27.2027 66.048 28.192V32H64.9V28.402C64.9 27.982 64.8627 27.6413 64.788 27.38C64.7133 27.1187 64.606 26.918 64.466 26.778C64.3353 26.6287 64.172 26.526 63.976 26.47C63.7893 26.414 63.584 26.386 63.36 26.386C63.1733 26.386 62.9727 26.4 62.758 26.428C62.5527 26.4467 62.352 26.4747 62.156 26.512V32H60.994V25.686ZM70.402 25.504H73.146V26.47H70.402V29.494C70.402 29.8207 70.4253 30.0867 70.472 30.292C70.5187 30.4973 70.5933 30.6653 70.696 30.796C70.808 30.9173 70.948 31.0013 71.116 31.048C71.284 31.0947 71.4893 31.118 71.732 31.118C72.068 31.118 72.3387 31.09 72.544 31.034C72.7493 30.978 72.9453 30.9033 73.132 30.81L73.3 31.79C73.1693 31.846 72.9593 31.9207 72.67 32.014C72.39 32.1073 72.04 32.154 71.62 32.154C71.1347 32.154 70.738 32.098 70.43 31.986C70.122 31.874 69.8793 31.706 69.702 31.482C69.534 31.258 69.4173 30.9827 69.352 30.656C69.2867 30.32 69.254 29.9327 69.254 29.494V26.47H67.882V25.504H69.254V23.684L70.402 23.488V25.504ZM77.57 31.174C77.8593 31.174 78.116 31.1647 78.34 31.146C78.5733 31.1273 78.7647 31.104 78.914 31.076V29.144C78.7647 29.0973 78.5827 29.06 78.368 29.032C78.1627 29.004 77.9433 28.99 77.71 28.99C77.4953 28.99 77.2853 29.0087 77.08 29.046C76.8747 29.074 76.6927 29.13 76.534 29.214C76.3753 29.298 76.2447 29.41 76.142 29.55C76.0393 29.6807 75.988 29.8487 75.988 30.054C75.988 30.474 76.128 30.768 76.408 30.936C76.6973 31.0947 77.0847 31.174 77.57 31.174ZM77.458 25.35C77.9433 25.35 78.3493 25.4107 78.676 25.532C79.012 25.6533 79.2827 25.8213 79.488 26.036C79.6933 26.2507 79.838 26.512 79.922 26.82C80.006 27.128 80.048 27.464 80.048 27.828V31.888C79.7773 31.9347 79.418 31.9907 78.97 32.056C78.5313 32.1213 78.0787 32.154 77.612 32.154C77.2573 32.154 76.912 32.1213 76.576 32.056C76.24 32 75.9413 31.8973 75.68 31.748C75.4187 31.5893 75.2087 31.3747 75.05 31.104C74.8913 30.8333 74.812 30.488 74.812 30.068C74.812 29.6947 74.8913 29.382 75.05 29.13C75.218 28.8687 75.428 28.6587 75.68 28.5C75.9413 28.3413 76.2353 28.2293 76.562 28.164C76.898 28.0893 77.234 28.052 77.57 28.052C78.0273 28.052 78.4753 28.1033 78.914 28.206V27.884C78.914 27.688 78.8907 27.5013 78.844 27.324C78.8067 27.1373 78.7273 26.9693 78.606 26.82C78.494 26.6707 78.3353 26.554 78.13 26.47C77.934 26.3767 77.6773 26.33 77.36 26.33C76.9587 26.33 76.6087 26.358 76.31 26.414C76.0113 26.47 75.7827 26.526 75.624 26.582L75.484 25.63C75.6427 25.5553 75.904 25.49 76.268 25.434C76.6413 25.378 77.038 25.35 77.458 25.35ZM81.686 28.766C81.686 28.178 81.7793 27.6693 81.966 27.24C82.1527 26.8107 82.4093 26.456 82.736 26.176C83.0627 25.896 83.4407 25.6907 83.87 25.56C84.3087 25.42 84.7753 25.35 85.27 25.35C85.5873 25.35 85.9 25.3733 86.208 25.42C86.5253 25.4573 86.8613 25.532 87.216 25.644L86.95 26.638C86.642 26.526 86.3573 26.456 86.096 26.428C85.844 26.3907 85.5873 26.372 85.326 26.372C84.99 26.372 84.6727 26.4187 84.374 26.512C84.0753 26.596 83.814 26.736 83.59 26.932C83.3753 27.1187 83.2027 27.366 83.072 27.674C82.9413 27.9727 82.876 28.3367 82.876 28.766C82.876 29.1767 82.9367 29.5313 83.058 29.83C83.1793 30.1193 83.3473 30.362 83.562 30.558C83.786 30.7447 84.052 30.8847 84.36 30.978C84.668 31.0713 85.0087 31.118 85.382 31.118C85.6807 31.118 85.9653 31.104 86.236 31.076C86.516 31.0387 86.8193 30.964 87.146 30.852L87.314 31.818C86.9873 31.9393 86.656 32.0233 86.32 32.07C85.984 32.126 85.62 32.154 85.228 32.154C84.7053 32.154 84.2247 32.084 83.786 31.944C83.3567 31.7947 82.9833 31.58 82.666 31.3C82.358 31.02 82.1153 30.67 81.938 30.25C81.77 29.8207 81.686 29.326 81.686 28.766ZM91.402 25.504H94.146V26.47H91.402V29.494C91.402 29.8207 91.4253 30.0867 91.472 30.292C91.5187 30.4973 91.5933 30.6653 91.696 30.796C91.808 30.9173 91.948 31.0013 92.116 31.048C92.284 31.0947 92.4893 31.118 92.732 31.118C93.068 31.118 93.3387 31.09 93.544 31.034C93.7493 30.978 93.9453 30.9033 94.132 30.81L94.3 31.79C94.1693 31.846 93.9593 31.9207 93.67 32.014C93.39 32.1073 93.04 32.154 92.62 32.154C92.1347 32.154 91.738 32.098 91.43 31.986C91.122 31.874 90.8793 31.706 90.702 31.482C90.534 31.258 90.4173 30.9827 90.352 30.656C90.2867 30.32 90.254 29.9327 90.254 29.494V26.47H88.882V25.504H90.254V23.684L91.402 23.488V25.504Z" fill="#9AB8C9"/>
</g>
<g filter="url(#filter4_d)">
<path d="M18.5 19H5.5C4.67188 19 4 19.6719 4 20.5V31.5C4 32.3281 4.67188 33 5.5 33H18.5C19.3281 33 20 32.3281 20 31.5V20.5C20 19.6719 19.3281 19 18.5 19ZM18.5 31.3125C18.5 31.4156 18.4156 31.5 18.3125 31.5H5.6875C5.58438 31.5 5.5 31.4156 5.5 31.3125V24H18.5V31.3125Z" fill="#9AB8C9"/>
</g>
<g filter="url(#filter5_d)">
<rect x="4" y="36" width="91" height="103" rx="2" fill="#F2F2F2"/>
</g>
<rect x="21" y="120" width="58" height="12" rx="1" fill="#53BA5D"/>
<rect x="21.5" y="75.5" width="57" height="11" rx="0.5" fill="#F2F2F2" stroke="#B4B4B4"/>
<rect x="21.5" y="92.5" width="57" height="23" rx="0.5" fill="#F2F2F2" stroke="#B4B4B4"/>
<rect x="21" y="57" width="58" height="5" rx="1" fill="#B4B4B4"/>
<rect x="28" y="42" width="43" height="12" rx="1" fill="#B4B4B4"/>
<g filter="url(#filter6_d)">
<path d="M195.626 7.35C196.503 7.35 197.18 7.62533 197.656 8.176C198.132 8.71733 198.37 9.54333 198.37 10.654V11.06H193.722C193.769 11.732 193.988 12.2453 194.38 12.6C194.781 12.9453 195.341 13.118 196.06 13.118C196.471 13.118 196.821 13.0853 197.11 13.02C197.399 12.9547 197.619 12.8847 197.768 12.81L197.922 13.79C197.782 13.8647 197.53 13.944 197.166 14.028C196.802 14.112 196.391 14.154 195.934 14.154C195.374 14.154 194.879 14.07 194.45 13.902C194.03 13.7247 193.68 13.4867 193.4 13.188C193.12 12.8893 192.91 12.5347 192.77 12.124C192.63 11.704 192.56 11.2513 192.56 10.766C192.56 10.1873 192.649 9.68333 192.826 9.254C193.003 8.82467 193.237 8.47 193.526 8.19C193.815 7.91 194.142 7.7 194.506 7.56C194.87 7.42 195.243 7.35 195.626 7.35ZM197.194 10.122C197.194 9.57133 197.049 9.13733 196.76 8.82C196.471 8.49333 196.088 8.33 195.612 8.33C195.341 8.33 195.094 8.38133 194.87 8.484C194.655 8.58667 194.469 8.722 194.31 8.89C194.151 9.058 194.025 9.24933 193.932 9.464C193.839 9.67867 193.778 9.898 193.75 10.122H197.194ZM199.574 7.686C200.134 7.47133 200.661 7.364 201.156 7.364C201.427 7.364 201.679 7.406 201.912 7.49C202.155 7.56467 202.36 7.686 202.528 7.854C202.929 7.52733 203.359 7.364 203.816 7.364C204.04 7.364 204.25 7.406 204.446 7.49C204.651 7.574 204.829 7.7 204.978 7.868C205.137 8.036 205.263 8.246 205.356 8.498C205.449 8.75 205.496 9.044 205.496 9.38V14H204.446V9.352C204.446 9.016 204.371 8.75933 204.222 8.582C204.073 8.40467 203.886 8.316 203.662 8.316C203.55 8.316 203.433 8.344 203.312 8.4C203.191 8.456 203.079 8.54467 202.976 8.666C203.032 8.88067 203.06 9.11867 203.06 9.38V11.494H202.01V9.366C202.01 9.03933 201.959 8.78267 201.856 8.596C201.753 8.40933 201.553 8.316 201.254 8.316C201.067 8.316 200.857 8.358 200.624 8.442V14H199.574V7.686ZM209.57 13.174C209.859 13.174 210.116 13.1647 210.34 13.146C210.573 13.1273 210.765 13.104 210.914 13.076V11.144C210.765 11.0973 210.583 11.06 210.368 11.032C210.163 11.004 209.943 10.99 209.71 10.99C209.495 10.99 209.285 11.0087 209.08 11.046C208.875 11.074 208.693 11.13 208.534 11.214C208.375 11.298 208.245 11.41 208.142 11.55C208.039 11.6807 207.988 11.8487 207.988 12.054C207.988 12.474 208.128 12.768 208.408 12.936C208.697 13.0947 209.085 13.174 209.57 13.174ZM209.458 7.35C209.943 7.35 210.349 7.41067 210.676 7.532C211.012 7.65333 211.283 7.82133 211.488 8.036C211.693 8.25067 211.838 8.512 211.922 8.82C212.006 9.128 212.048 9.464 212.048 9.828V13.888C211.777 13.9347 211.418 13.9907 210.97 14.056C210.531 14.1213 210.079 14.154 209.612 14.154C209.257 14.154 208.912 14.1213 208.576 14.056C208.24 14 207.941 13.8973 207.68 13.748C207.419 13.5893 207.209 13.3747 207.05 13.104C206.891 12.8333 206.812 12.488 206.812 12.068C206.812 11.6947 206.891 11.382 207.05 11.13C207.218 10.8687 207.428 10.6587 207.68 10.5C207.941 10.3413 208.235 10.2293 208.562 10.164C208.898 10.0893 209.234 10.052 209.57 10.052C210.027 10.052 210.475 10.1033 210.914 10.206V9.884C210.914 9.688 210.891 9.50133 210.844 9.324C210.807 9.13733 210.727 8.96933 210.606 8.82C210.494 8.67067 210.335 8.554 210.13 8.47C209.934 8.37667 209.677 8.33 209.36 8.33C208.959 8.33 208.609 8.358 208.31 8.414C208.011 8.47 207.783 8.526 207.624 8.582L207.484 7.63C207.643 7.55533 207.904 7.49 208.268 7.434C208.641 7.378 209.038 7.35 209.458 7.35ZM215.926 6.496C215.683 6.496 215.473 6.412 215.296 6.244C215.119 6.076 215.03 5.84733 215.03 5.558C215.03 5.26867 215.119 5.04 215.296 4.872C215.473 4.704 215.683 4.62 215.926 4.62C216.178 4.62 216.388 4.704 216.556 4.872C216.733 5.04 216.822 5.26867 216.822 5.558C216.822 5.84733 216.733 6.076 216.556 6.244C216.388 6.412 216.178 6.496 215.926 6.496ZM215.632 8.47H213.756V7.504H216.78V11.494C216.78 12.138 216.869 12.572 217.046 12.796C217.223 13.0107 217.489 13.118 217.844 13.118C218.115 13.118 218.362 13.0853 218.586 13.02C218.819 12.9547 219.001 12.8847 219.132 12.81L219.3 13.79C219.244 13.818 219.165 13.8553 219.062 13.902C218.959 13.9393 218.838 13.9767 218.698 14.014C218.567 14.0513 218.418 14.084 218.25 14.112C218.091 14.14 217.923 14.154 217.746 14.154C217.335 14.154 216.995 14.098 216.724 13.986C216.453 13.874 216.234 13.706 216.066 13.482C215.907 13.258 215.795 12.9827 215.73 12.656C215.665 12.32 215.632 11.9327 215.632 11.494V8.47ZM224.732 14.154C224.321 14.154 223.981 14.098 223.71 13.986C223.439 13.874 223.225 13.706 223.066 13.482C222.907 13.258 222.795 12.9827 222.73 12.656C222.665 12.32 222.632 11.9327 222.632 11.494V5.348H220.756V4.368H223.78V11.494C223.78 11.8207 223.799 12.0867 223.836 12.292C223.883 12.4973 223.948 12.6653 224.032 12.796C224.125 12.9173 224.237 13.0013 224.368 13.048C224.499 13.0947 224.653 13.118 224.83 13.118C225.101 13.118 225.353 13.0853 225.586 13.02C225.819 12.9547 226.001 12.8847 226.132 12.81L226.3 13.79C226.244 13.818 226.165 13.8553 226.062 13.902C225.959 13.9393 225.838 13.9767 225.698 14.014C225.558 14.0513 225.404 14.084 225.236 14.112C225.077 14.14 224.909 14.154 224.732 14.154Z" fill="#9AB8C9"/>
</g>
<g filter="url(#filter7_d)">
<g clip-path="url(#clip0)">
<path d="M144.716 15.9844L142.809 15.4313C142.609 15.375 142.497 15.1656 142.553 14.9656L146.819 0.271873C146.875 0.071873 147.084 -0.040627 147.284 0.015623L149.191 0.568748C149.391 0.624998 149.503 0.834373 149.447 1.03437L145.181 15.7281C145.122 15.9281 144.916 16.0438 144.716 15.9844V15.9844ZM141.153 12.4781L142.513 11.0281C142.656 10.875 142.647 10.6313 142.488 10.4906L139.656 8L142.488 5.50937C142.647 5.36875 142.659 5.125 142.513 4.97187L141.153 3.52187C141.013 3.37187 140.775 3.3625 140.622 3.50625L136.119 7.725C135.959 7.87187 135.959 8.125 136.119 8.27188L140.622 12.4938C140.775 12.6375 141.013 12.6313 141.153 12.4781V12.4781ZM151.378 12.4969L155.881 8.275C156.041 8.12812 156.041 7.875 155.881 7.72813L151.378 3.50312C151.228 3.3625 150.991 3.36875 150.847 3.51875L149.488 4.96875C149.344 5.12187 149.353 5.36562 149.513 5.50625L152.344 8L149.513 10.4906C149.353 10.6313 149.341 10.875 149.488 11.0281L150.847 12.4781C150.988 12.6313 151.225 12.6375 151.378 12.4969V12.4969Z" fill="#9AB8C9"/>
</g>
</g>
<g filter="url(#filter8_d)">
<rect x="136" y="18" width="91" height="138" rx="2" fill="#F2F2F2"/>
</g>
<rect x="152" y="45" width="71" height="5" rx="1" fill="#B4B4B4"/>
<rect x="140" y="53" width="83" height="5" rx="1" fill="#B4B4B4"/>
<rect x="140" y="61" width="83" height="5" rx="1" fill="#B4B4B4"/>
<rect x="152" y="92" width="71" height="5" rx="1" fill="#B4B4B4"/>
<rect x="140" y="100" width="83" height="5" rx="1" fill="#B4B4B4"/>
<rect x="140" y="69" width="83" height="5" rx="1" fill="#B4B4B4"/>
<rect x="140" y="77" width="50" height="5" rx="1" fill="#B4B4B4"/>
<rect x="140" y="139" width="12" height="12" rx="1" fill="#B4B4B4"/>
<rect x="140" y="24" width="83" height="12" rx="1" fill="#B4B4B4"/>
<g filter="url(#filter9_d)">
<path d="M79 126H100.531C103.292 126 105.531 123.761 105.531 121V29C105.531 26.2386 107.769 24 110.531 24H129" stroke="#B4B4B4"/>
<path d="M134.598 24.3743L130.331 28.153C130.009 28.4387 129.5 28.2097 129.5 27.7787L129.5 20.2213C129.5 19.7903 130.009 19.5613 130.331 19.847L134.598 23.6257C134.823 23.8246 134.823 24.1753 134.598 24.3743Z" stroke="#B4B4B4"/>
</g>
<g filter="url(#filter10_d)">
<path d="M227 24H240.041C242.802 24 245.041 26.2386 245.041 29V113C245.041 115.761 247.279 118 250.041 118H261" stroke="#B4B4B4"/>
<path d="M266.598 118.374L262.331 122.153C262.009 122.439 261.5 122.21 261.5 121.779L261.5 114.221C261.5 113.79 262.009 113.561 262.331 113.847L266.598 117.626C266.823 117.825 266.823 118.175 266.598 118.374Z" stroke="#B4B4B4"/>
</g>
<defs>
<filter id="filter0_d" x="264" y="32" width="24" height="24" filterUnits="userSpaceOnUse" color-interpolation-filters="sRGB">
<feFlood flood-opacity="0" result="BackgroundImageFix"/>
<feColorMatrix in="SourceAlpha" type="matrix" values="0 0 0 0 0 0 0 0 0 0 0 0 0 0 0 0 0 0 127 0"/>
<feOffset dy="4"/>
<feGaussianBlur stdDeviation="2"/>
<feColorMatrix type="matrix" values="0 0 0 0 0 0 0 0 0 0 0 0 0 0 0 0 0 0 0.25 0"/>
<feBlend mode="normal" in2="BackgroundImageFix" result="effect1_dropShadow"/>
<feBlend mode="normal" in="SourceGraphic" in2="effect1_dropShadow" result="shape"/>
</filter>
<filter id="filter1_d" x="327.924" y="35.298" width="34.082" height="17.856" filterUnits="userSpaceOnUse" color-interpolation-filters="sRGB">
<feFlood flood-opacity="0" result="BackgroundImageFix"/>
<feColorMatrix in="SourceAlpha" type="matrix" values="0 0 0 0 0 0 0 0 0 0 0 0 0 0 0 0 0 0 127 0"/>
<feOffset dy="4"/>
<feGaussianBlur stdDeviation="2"/>
<feColorMatrix type="matrix" values="0 0 0 0 0 0 0 0 0 0 0 0 0 0 0 0 0 0 0.25 0"/>
<feBlend mode="normal" in2="BackgroundImageFix" result="effect1_dropShadow"/>
<feBlend mode="normal" in="SourceGraphic" in2="effect1_dropShadow" result="shape"/>
</filter>
<filter id="filter2_d" x="264" y="49" width="99" height="86" filterUnits="userSpaceOnUse" color-interpolation-filters="sRGB">
<feFlood flood-opacity="0" result="BackgroundImageFix"/>
<feColorMatrix in="SourceAlpha" type="matrix" values="0 0 0 0 0 0 0 0 0 0 0 0 0 0 0 0 0 0 127 0"/>
<feOffset dy="4"/>
<feGaussianBlur stdDeviation="2"/>
<feColorMatrix type="matrix" values="0 0 0 0 0 0 0 0 0 0 0 0 0 0 0 0 0 0 0.25 0"/>
<feBlend mode="normal" in2="BackgroundImageFix" result="effect1_dropShadow"/>
<feBlend mode="normal" in="SourceGraphic" in2="effect1_dropShadow" result="shape"/>
</filter>
<filter id="filter3_d" x="42.686" y="23.488" width="55.614" height="16.666" filterUnits="userSpaceOnUse" color-interpolation-filters="sRGB">
<feFlood flood-opacity="0" result="BackgroundImageFix"/>
<feColorMatrix in="SourceAlpha" type="matrix" values="0 0 0 0 0 0 0 0 0 0 0 0 0 0 0 0 0 0 127 0"/>
<feOffset dy="4"/>
<feGaussianBlur stdDeviation="2"/>
<feColorMatrix type="matrix" values="0 0 0 0 0 0 0 0 0 0 0 0 0 0 0 0 0 0 0.25 0"/>
<feBlend mode="normal" in2="BackgroundImageFix" result="effect1_dropShadow"/>
<feBlend mode="normal" in="SourceGraphic" in2="effect1_dropShadow" result="shape"/>
</filter>
<filter id="filter4_d" x="0" y="18" width="24" height="24" filterUnits="userSpaceOnUse" color-interpolation-filters="sRGB">
<feFlood flood-opacity="0" result="BackgroundImageFix"/>
<feColorMatrix in="SourceAlpha" type="matrix" values="0 0 0 0 0 0 0 0 0 0 0 0 0 0 0 0 0 0 127 0"/>
<feOffset dy="4"/>
<feGaussianBlur stdDeviation="2"/>
<feColorMatrix type="matrix" values="0 0 0 0 0 0 0 0 0 0 0 0 0 0 0 0 0 0 0.25 0"/>
<feBlend mode="normal" in2="BackgroundImageFix" result="effect1_dropShadow"/>
<feBlend mode="normal" in="SourceGraphic" in2="effect1_dropShadow" result="shape"/>
</filter>
<filter id="filter5_d" x="0" y="36" width="99" height="111" filterUnits="userSpaceOnUse" color-interpolation-filters="sRGB">
<feFlood flood-opacity="0" result="BackgroundImageFix"/>
<feColorMatrix in="SourceAlpha" type="matrix" values="0 0 0 0 0 0 0 0 0 0 0 0 0 0 0 0 0 0 127 0"/>
<feOffset dy="4"/>
<feGaussianBlur stdDeviation="2"/>
<feColorMatrix type="matrix" values="0 0 0 0 0 0 0 0 0 0 0 0 0 0 0 0 0 0 0.25 0"/>
<feBlend mode="normal" in2="BackgroundImageFix" result="effect1_dropShadow"/>
<feBlend mode="normal" in="SourceGraphic" in2="effect1_dropShadow" result="shape"/>
</filter>
<filter id="filter6_d" x="188.56" y="4.368" width="41.74" height="17.786" filterUnits="userSpaceOnUse" color-interpolation-filters="sRGB">
<feFlood flood-opacity="0" result="BackgroundImageFix"/>
<feColorMatrix in="SourceAlpha" type="matrix" values="0 0 0 0 0 0 0 0 0 0 0 0 0 0 0 0 0 0 127 0"/>
<feOffset dy="4"/>
<feGaussianBlur stdDeviation="2"/>
<feColorMatrix type="matrix" values="0 0 0 0 0 0 0 0 0 0 0 0 0 0 0 0 0 0 0.25 0"/>
<feBlend mode="normal" in2="BackgroundImageFix" result="effect1_dropShadow"/>
<feBlend mode="normal" in="SourceGraphic" in2="effect1_dropShadow" result="shape"/>
</filter>
<filter id="filter7_d" x="132" y="0" width="28" height="24" filterUnits="userSpaceOnUse" color-interpolation-filters="sRGB">
<feFlood flood-opacity="0" result="BackgroundImageFix"/>
<feColorMatrix in="SourceAlpha" type="matrix" values="0 0 0 0 0 0 0 0 0 0 0 0 0 0 0 0 0 0 127 0"/>
<feOffset dy="4"/>
<feGaussianBlur stdDeviation="2"/>
<feColorMatrix type="matrix" values="0 0 0 0 0 0 0 0 0 0 0 0 0 0 0 0 0 0 0.25 0"/>
<feBlend mode="normal" in2="BackgroundImageFix" result="effect1_dropShadow"/>
<feBlend mode="normal" in="SourceGraphic" in2="effect1_dropShadow" result="shape"/>
</filter>
<filter id="filter8_d" x="132" y="18" width="99" height="146" filterUnits="userSpaceOnUse" color-interpolation-filters="sRGB">
<feFlood flood-opacity="0" result="BackgroundImageFix"/>
<feColorMatrix in="SourceAlpha" type="matrix" values="0 0 0 0 0 0 0 0 0 0 0 0 0 0 0 0 0 0 127 0"/>
<feOffset dy="4"/>
<feGaussianBlur stdDeviation="2"/>
<feColorMatrix type="matrix" values="0 0 0 0 0 0 0 0 0 0 0 0 0 0 0 0 0 0 0.25 0"/>
<feBlend mode="normal" in2="BackgroundImageFix" result="effect1_dropShadow"/>
<feBlend mode="normal" in="SourceGraphic" in2="effect1_dropShadow" result="shape"/>
</filter>
<filter id="filter9_d" x="75" y="19.2194" width="64.2669" height="115.281" filterUnits="userSpaceOnUse" color-interpolation-filters="sRGB">
<feFlood flood-opacity="0" result="BackgroundImageFix"/>
<feColorMatrix in="SourceAlpha" type="matrix" values="0 0 0 0 0 0 0 0 0 0 0 0 0 0 0 0 0 0 127 0"/>
<feOffset dy="4"/>
<feGaussianBlur stdDeviation="2"/>
<feColorMatrix type="matrix" values="0 0 0 0 0 0 0 0 0 0 0 0 0 0 0 0 0 0 0.25 0"/>
<feBlend mode="normal" in2="BackgroundImageFix" result="effect1_dropShadow"/>
<feBlend mode="normal" in="SourceGraphic" in2="effect1_dropShadow" result="shape"/>
</filter>
<filter id="filter10_d" x="223" y="23.5" width="48.2669" height="107.281" filterUnits="userSpaceOnUse" color-interpolation-filters="sRGB">
<feFlood flood-opacity="0" result="BackgroundImageFix"/>
<feColorMatrix in="SourceAlpha" type="matrix" values="0 0 0 0 0 0 0 0 0 0 0 0 0 0 0 0 0 0 127 0"/>
<feOffset dy="4"/>
<feGaussianBlur stdDeviation="2"/>
<feColorMatrix type="matrix" values="0 0 0 0 0 0 0 0 0 0 0 0 0 0 0 0 0 0 0.25 0"/>
<feBlend mode="normal" in2="BackgroundImageFix" result="effect1_dropShadow"/>
<feBlend mode="normal" in="SourceGraphic" in2="effect1_dropShadow" result="shape"/>
</filter>
<clipPath id="clip0">
<rect x="136" width="20" height="16" rx="2" fill="white"/>
</clipPath>
</defs>
</svg>
