<svg width="290" height="224" viewBox="0 0 290 224" fill="none" xmlns="http://www.w3.org/2000/svg">
<g filter="url(#filter0_d)">
<path d="M172 149.286V150.714C172 151.973 168.865 153 165 153C161.135 153 158 151.973 158 150.714V149.286C158 148.027 161.135 147 165 147C168.865 147 172 148.027 172 149.286ZM172 152.5V155.714C172 156.973 168.865 158 165 158C161.135 158 158 156.973 158 155.714V152.5C159.504 153.536 162.257 154.018 165 154.018C167.743 154.018 170.496 153.536 172 152.5ZM172 157.5V160.714C172 161.973 168.865 163 165 163C161.135 163 158 161.973 158 160.714V157.5C159.504 158.536 162.257 159.018 165 159.018C167.743 159.018 170.496 158.536 172 157.5Z" fill="#9AB8C9"/>
</g>
<g filter="url(#filter1_d)">
<path d="M190.844 156.876C190.713 156.755 190.522 156.643 190.27 156.54C190.018 156.428 189.757 156.372 189.486 156.372C189.178 156.372 188.912 156.433 188.688 156.554C188.473 156.675 188.296 156.843 188.156 157.058C188.016 157.263 187.913 157.515 187.848 157.814C187.783 158.103 187.75 158.416 187.75 158.752C187.75 159.508 187.927 160.091 188.282 160.502C188.637 160.913 189.099 161.118 189.668 161.118C189.957 161.118 190.2 161.104 190.396 161.076C190.601 161.048 190.751 161.02 190.844 160.992V156.876ZM190.844 152.494L192.006 152.298V161.818C191.754 161.893 191.432 161.967 191.04 162.042C190.648 162.117 190.191 162.154 189.668 162.154C189.201 162.154 188.777 162.075 188.394 161.916C188.011 161.757 187.685 161.533 187.414 161.244C187.143 160.945 186.933 160.586 186.784 160.166C186.635 159.746 186.56 159.275 186.56 158.752C186.56 158.248 186.621 157.791 186.742 157.38C186.873 156.96 187.059 156.601 187.302 156.302C187.545 156.003 187.834 155.77 188.17 155.602C188.515 155.434 188.907 155.35 189.346 155.35C189.691 155.35 189.995 155.392 190.256 155.476C190.517 155.56 190.713 155.649 190.844 155.742V152.494ZM195.156 155.742C195.296 155.658 195.497 155.574 195.758 155.49C196.029 155.397 196.327 155.35 196.654 155.35C197.093 155.35 197.485 155.434 197.83 155.602C198.175 155.77 198.465 156.003 198.698 156.302C198.941 156.601 199.123 156.96 199.244 157.38C199.375 157.791 199.44 158.248 199.44 158.752C199.44 159.275 199.365 159.746 199.216 160.166C199.067 160.586 198.857 160.945 198.586 161.244C198.315 161.533 197.989 161.757 197.606 161.916C197.223 162.075 196.799 162.154 196.332 162.154C195.819 162.154 195.361 162.117 194.96 162.042C194.559 161.967 194.237 161.893 193.994 161.818V152.494L195.156 152.298V155.742ZM195.156 160.992C195.333 161.039 195.511 161.076 195.688 161.104C195.865 161.123 196.033 161.132 196.192 161.132C196.836 161.132 197.34 160.936 197.704 160.544C198.068 160.143 198.25 159.545 198.25 158.752C198.25 158.416 198.217 158.103 198.152 157.814C198.087 157.515 197.984 157.263 197.844 157.058C197.704 156.843 197.522 156.675 197.298 156.554C197.083 156.433 196.822 156.372 196.514 156.372C196.243 156.372 195.982 156.428 195.73 156.54C195.478 156.643 195.287 156.755 195.156 156.876V160.992ZM204.536 161.104C204.536 161.384 204.443 161.631 204.256 161.846C204.069 162.061 203.822 162.168 203.514 162.168C203.197 162.168 202.945 162.061 202.758 161.846C202.571 161.631 202.478 161.384 202.478 161.104C202.478 160.815 202.571 160.563 202.758 160.348C202.945 160.133 203.197 160.026 203.514 160.026C203.822 160.026 204.069 160.133 204.256 160.348C204.443 160.563 204.536 160.815 204.536 161.104ZM209.926 154.496C209.683 154.496 209.473 154.412 209.296 154.244C209.119 154.076 209.03 153.847 209.03 153.558C209.03 153.269 209.119 153.04 209.296 152.872C209.473 152.704 209.683 152.62 209.926 152.62C210.178 152.62 210.388 152.704 210.556 152.872C210.733 153.04 210.822 153.269 210.822 153.558C210.822 153.847 210.733 154.076 210.556 154.244C210.388 154.412 210.178 154.496 209.926 154.496ZM209.632 156.47H207.756V155.504H210.78V159.494C210.78 160.138 210.869 160.572 211.046 160.796C211.223 161.011 211.489 161.118 211.844 161.118C212.115 161.118 212.362 161.085 212.586 161.02C212.819 160.955 213.001 160.885 213.132 160.81L213.3 161.79C213.244 161.818 213.165 161.855 213.062 161.902C212.959 161.939 212.838 161.977 212.698 162.014C212.567 162.051 212.418 162.084 212.25 162.112C212.091 162.14 211.923 162.154 211.746 162.154C211.335 162.154 210.995 162.098 210.724 161.986C210.453 161.874 210.234 161.706 210.066 161.482C209.907 161.258 209.795 160.983 209.73 160.656C209.665 160.32 209.632 159.933 209.632 159.494V156.47ZM214.994 155.686C215.414 155.583 215.829 155.504 216.24 155.448C216.66 155.392 217.052 155.364 217.416 155.364C218.284 155.364 218.937 155.588 219.376 156.036C219.824 156.484 220.048 157.203 220.048 158.192V162H218.9V158.402C218.9 157.982 218.863 157.641 218.788 157.38C218.713 157.119 218.606 156.918 218.466 156.778C218.335 156.629 218.172 156.526 217.976 156.47C217.789 156.414 217.584 156.386 217.36 156.386C217.173 156.386 216.973 156.4 216.758 156.428C216.553 156.447 216.352 156.475 216.156 156.512V162H214.994V155.686ZM225.914 160.376C225.914 160.143 225.816 159.951 225.62 159.802C225.433 159.653 225.195 159.522 224.906 159.41C224.626 159.298 224.318 159.191 223.982 159.088C223.646 158.976 223.333 158.841 223.044 158.682C222.764 158.523 222.526 158.327 222.33 158.094C222.143 157.861 222.05 157.557 222.05 157.184C222.05 156.661 222.26 156.227 222.68 155.882C223.109 155.527 223.777 155.35 224.682 155.35C225.037 155.35 225.401 155.378 225.774 155.434C226.157 155.481 226.483 155.546 226.754 155.63L226.544 156.666C226.469 156.629 226.367 156.591 226.236 156.554C226.105 156.507 225.956 156.47 225.788 156.442C225.62 156.405 225.438 156.377 225.242 156.358C225.055 156.339 224.873 156.33 224.696 156.33C223.688 156.33 223.184 156.605 223.184 157.156C223.184 157.352 223.277 157.52 223.464 157.66C223.66 157.791 223.903 157.912 224.192 158.024C224.481 158.136 224.794 158.253 225.13 158.374C225.466 158.486 225.779 158.626 226.068 158.794C226.357 158.962 226.595 159.167 226.782 159.41C226.978 159.643 227.076 159.942 227.076 160.306C227.076 160.894 226.847 161.351 226.39 161.678C225.933 161.995 225.209 162.154 224.22 162.154C223.772 162.154 223.361 162.117 222.988 162.042C222.615 161.967 222.26 161.855 221.924 161.706L222.148 160.656C222.475 160.805 222.815 160.931 223.17 161.034C223.534 161.127 223.921 161.174 224.332 161.174C225.387 161.174 225.914 160.908 225.914 160.376ZM231.626 155.35C232.503 155.35 233.18 155.625 233.656 156.176C234.132 156.717 234.37 157.543 234.37 158.654V159.06H229.722C229.769 159.732 229.988 160.245 230.38 160.6C230.781 160.945 231.341 161.118 232.06 161.118C232.471 161.118 232.821 161.085 233.11 161.02C233.399 160.955 233.619 160.885 233.768 160.81L233.922 161.79C233.782 161.865 233.53 161.944 233.166 162.028C232.802 162.112 232.391 162.154 231.934 162.154C231.374 162.154 230.879 162.07 230.45 161.902C230.03 161.725 229.68 161.487 229.4 161.188C229.12 160.889 228.91 160.535 228.77 160.124C228.63 159.704 228.56 159.251 228.56 158.766C228.56 158.187 228.649 157.683 228.826 157.254C229.003 156.825 229.237 156.47 229.526 156.19C229.815 155.91 230.142 155.7 230.506 155.56C230.87 155.42 231.243 155.35 231.626 155.35ZM233.194 158.122C233.194 157.571 233.049 157.137 232.76 156.82C232.471 156.493 232.088 156.33 231.612 156.33C231.341 156.33 231.094 156.381 230.87 156.484C230.655 156.587 230.469 156.722 230.31 156.89C230.151 157.058 230.025 157.249 229.932 157.464C229.839 157.679 229.778 157.898 229.75 158.122H233.194ZM236.498 162V155.854C237.45 155.527 238.411 155.364 239.382 155.364C239.681 155.364 239.965 155.378 240.236 155.406C240.507 155.425 240.805 155.471 241.132 155.546L240.922 156.568C240.623 156.484 240.357 156.433 240.124 156.414C239.9 156.386 239.653 156.372 239.382 156.372C238.813 156.372 238.234 156.451 237.646 156.61V162H236.498ZM245.402 155.504H248.146V156.47H245.402V159.494C245.402 159.821 245.425 160.087 245.472 160.292C245.519 160.497 245.593 160.665 245.696 160.796C245.808 160.917 245.948 161.001 246.116 161.048C246.284 161.095 246.489 161.118 246.732 161.118C247.068 161.118 247.339 161.09 247.544 161.034C247.749 160.978 247.945 160.903 248.132 160.81L248.3 161.79C248.169 161.846 247.959 161.921 247.67 162.014C247.39 162.107 247.04 162.154 246.62 162.154C246.135 162.154 245.738 162.098 245.43 161.986C245.122 161.874 244.879 161.706 244.702 161.482C244.534 161.258 244.417 160.983 244.352 160.656C244.287 160.32 244.254 159.933 244.254 159.494V156.47H242.882V155.504H244.254V153.684L245.402 153.488V155.504Z" fill="#9AB8C9"/>
</g>
<g filter="url(#filter2_d)">
<rect x="158" y="166" width="91" height="50" rx="2" fill="#F2F2F2"/>
</g>
<path d="M165.108 204.3C165.86 204.3 166.44 204.536 166.848 205.008C167.256 205.472 167.46 206.18 167.46 207.132V207.48H163.476C163.516 208.056 163.704 208.496 164.04 208.8C164.384 209.096 164.864 209.244 165.48 209.244C165.832 209.244 166.132 209.216 166.38 209.16C166.628 209.104 166.816 209.044 166.944 208.98L167.076 209.82C166.956 209.884 166.74 209.952 166.428 210.024C166.116 210.096 165.764 210.132 165.372 210.132C164.892 210.132 164.468 210.06 164.1 209.916C163.74 209.764 163.44 209.56 163.2 209.304C162.96 209.048 162.78 208.744 162.66 208.392C162.54 208.032 162.48 207.644 162.48 207.228C162.48 206.732 162.556 206.3 162.708 205.932C162.86 205.564 163.06 205.26 163.308 205.02C163.556 204.78 163.836 204.6 164.148 204.48C164.46 204.36 164.78 204.3 165.108 204.3ZM166.452 206.676C166.452 206.204 166.328 205.832 166.08 205.56C165.832 205.28 165.504 205.14 165.096 205.14C164.864 205.14 164.652 205.184 164.46 205.272C164.276 205.36 164.116 205.476 163.98 205.62C163.844 205.764 163.736 205.928 163.656 206.112C163.576 206.296 163.524 206.484 163.5 206.676H166.452ZM168.852 204.588C169.212 204.5 169.568 204.432 169.92 204.384C170.28 204.336 170.616 204.312 170.928 204.312C171.672 204.312 172.232 204.504 172.608 204.888C172.992 205.272 173.184 205.888 173.184 206.736V210H172.2V206.916C172.2 206.556 172.168 206.264 172.104 206.04C172.04 205.816 171.948 205.644 171.828 205.524C171.716 205.396 171.576 205.308 171.408 205.26C171.248 205.212 171.072 205.188 170.88 205.188C170.72 205.188 170.548 205.2 170.364 205.224C170.188 205.24 170.016 205.264 169.848 205.296V210H168.852V204.588ZM176.916 204.432H179.268V205.26H176.916V207.852C176.916 208.132 176.936 208.36 176.976 208.536C177.016 208.712 177.08 208.856 177.168 208.968C177.264 209.072 177.384 209.144 177.528 209.184C177.672 209.224 177.848 209.244 178.056 209.244C178.344 209.244 178.576 209.22 178.752 209.172C178.928 209.124 179.096 209.06 179.256 208.98L179.4 209.82C179.288 209.868 179.108 209.932 178.86 210.012C178.62 210.092 178.32 210.132 177.96 210.132C177.544 210.132 177.204 210.084 176.94 209.988C176.676 209.892 176.468 209.748 176.316 209.556C176.172 209.364 176.072 209.128 176.016 208.848C175.96 208.56 175.932 208.228 175.932 207.852V205.26H174.756V204.432H175.932V202.872L176.916 202.704V204.432ZM181.284 210V204.732C182.1 204.452 182.924 204.312 183.756 204.312C184.012 204.312 184.256 204.324 184.488 204.348C184.72 204.364 184.976 204.404 185.256 204.468L185.076 205.344C184.82 205.272 184.592 205.228 184.392 205.212C184.2 205.188 183.988 205.176 183.756 205.176C183.268 205.176 182.772 205.244 182.268 205.38V210H181.284ZM186.612 211.044C186.684 211.084 186.784 211.116 186.912 211.14C187.048 211.164 187.172 211.176 187.284 211.176C187.676 211.176 187.98 211.088 188.196 210.912C188.42 210.744 188.624 210.464 188.808 210.072C188.36 209.224 187.94 208.316 187.548 207.348C187.156 206.372 186.832 205.4 186.576 204.432H187.656C187.736 204.752 187.828 205.1 187.932 205.476C188.044 205.844 188.168 206.224 188.304 206.616C188.44 207.008 188.584 207.404 188.736 207.804C188.896 208.196 189.064 208.572 189.24 208.932C189.368 208.564 189.488 208.2 189.6 207.84C189.712 207.48 189.816 207.12 189.912 206.76C190.008 206.392 190.104 206.02 190.2 205.644C190.296 205.26 190.396 204.856 190.5 204.432H191.532C191.276 205.472 190.988 206.48 190.668 207.456C190.356 208.432 190.02 209.336 189.66 210.168C189.524 210.488 189.376 210.764 189.216 210.996C189.064 211.228 188.896 211.42 188.712 211.572C188.528 211.724 188.32 211.836 188.088 211.908C187.856 211.98 187.592 212.016 187.296 212.016C187.144 212.016 186.976 211.996 186.792 211.956C186.616 211.916 186.496 211.88 186.432 211.848L186.612 211.044Z" fill="#B4B4B4"/>
<path d="M162.588 191.228C162.588 190.724 162.668 190.288 162.828 189.92C162.988 189.552 163.208 189.248 163.488 189.008C163.768 188.768 164.092 188.592 164.46 188.48C164.836 188.36 165.236 188.3 165.66 188.3C165.932 188.3 166.2 188.32 166.464 188.36C166.736 188.392 167.024 188.456 167.328 188.552L167.1 189.404C166.836 189.308 166.592 189.248 166.368 189.224C166.152 189.192 165.932 189.176 165.708 189.176C165.42 189.176 165.148 189.216 164.892 189.296C164.636 189.368 164.412 189.488 164.22 189.656C164.036 189.816 163.888 190.028 163.776 190.292C163.664 190.548 163.608 190.86 163.608 191.228C163.608 191.58 163.66 191.884 163.764 192.14C163.868 192.388 164.012 192.596 164.196 192.764C164.388 192.924 164.616 193.044 164.88 193.124C165.144 193.204 165.436 193.244 165.756 193.244C166.012 193.244 166.256 193.232 166.488 193.208C166.728 193.176 166.988 193.112 167.268 193.016L167.412 193.844C167.132 193.948 166.848 194.02 166.56 194.06C166.272 194.108 165.96 194.132 165.624 194.132C165.176 194.132 164.764 194.072 164.388 193.952C164.02 193.824 163.7 193.64 163.428 193.4C163.164 193.16 162.956 192.86 162.804 192.5C162.66 192.132 162.588 191.708 162.588 191.228ZM173.52 191.216C173.52 191.656 173.456 192.056 173.328 192.416C173.208 192.768 173.036 193.072 172.812 193.328C172.588 193.584 172.32 193.784 172.008 193.928C171.696 194.064 171.356 194.132 170.988 194.132C170.628 194.132 170.292 194.064 169.98 193.928C169.676 193.784 169.412 193.584 169.188 193.328C168.964 193.072 168.788 192.768 168.66 192.416C168.54 192.056 168.48 191.656 168.48 191.216C168.48 190.776 168.54 190.376 168.66 190.016C168.788 189.656 168.964 189.352 169.188 189.104C169.412 188.848 169.676 188.652 169.98 188.516C170.292 188.372 170.628 188.3 170.988 188.3C171.356 188.3 171.696 188.372 172.008 188.516C172.32 188.652 172.588 188.848 172.812 189.104C173.036 189.352 173.208 189.656 173.328 190.016C173.456 190.376 173.52 190.776 173.52 191.216ZM172.5 191.216C172.5 190.584 172.364 190.088 172.092 189.728C171.82 189.36 171.452 189.176 170.988 189.176C170.532 189.176 170.168 189.36 169.896 189.728C169.632 190.088 169.5 190.584 169.5 191.216C169.5 191.84 169.632 192.336 169.896 192.704C170.168 193.064 170.532 193.244 170.988 193.244C171.452 193.244 171.82 193.064 172.092 192.704C172.364 192.336 172.5 191.84 172.5 191.216ZM178.056 194.132C177.704 194.132 177.412 194.084 177.18 193.988C176.948 193.892 176.764 193.748 176.628 193.556C176.492 193.364 176.396 193.128 176.34 192.848C176.284 192.56 176.256 192.228 176.256 191.852V186.584H174.648V185.744H177.24V191.852C177.24 192.132 177.256 192.36 177.288 192.536C177.328 192.712 177.384 192.856 177.456 192.968C177.536 193.072 177.632 193.144 177.744 193.184C177.856 193.224 177.988 193.244 178.14 193.244C178.372 193.244 178.588 193.216 178.788 193.16C178.988 193.104 179.144 193.044 179.256 192.98L179.4 193.82C179.352 193.844 179.284 193.876 179.196 193.916C179.108 193.948 179.004 193.98 178.884 194.012C178.764 194.044 178.632 194.072 178.488 194.096C178.352 194.12 178.208 194.132 178.056 194.132ZM184.056 194.132C183.704 194.132 183.412 194.084 183.18 193.988C182.948 193.892 182.764 193.748 182.628 193.556C182.492 193.364 182.396 193.128 182.34 192.848C182.284 192.56 182.256 192.228 182.256 191.852V186.584H180.648V185.744H183.24V191.852C183.24 192.132 183.256 192.36 183.288 192.536C183.328 192.712 183.384 192.856 183.456 192.968C183.536 193.072 183.632 193.144 183.744 193.184C183.856 193.224 183.988 193.244 184.14 193.244C184.372 193.244 184.588 193.216 184.788 193.16C184.988 193.104 185.144 193.044 185.256 192.98L185.4 193.82C185.352 193.844 185.284 193.876 185.196 193.916C185.108 193.948 185.004 193.98 184.884 194.012C184.764 194.044 184.632 194.072 184.488 194.096C184.352 194.12 184.208 194.132 184.056 194.132ZM189.108 188.3C189.86 188.3 190.44 188.536 190.848 189.008C191.256 189.472 191.46 190.18 191.46 191.132V191.48H187.476C187.516 192.056 187.704 192.496 188.04 192.8C188.384 193.096 188.864 193.244 189.48 193.244C189.832 193.244 190.132 193.216 190.38 193.16C190.628 193.104 190.816 193.044 190.944 192.98L191.076 193.82C190.956 193.884 190.74 193.952 190.428 194.024C190.116 194.096 189.764 194.132 189.372 194.132C188.892 194.132 188.468 194.06 188.1 193.916C187.74 193.764 187.44 193.56 187.2 193.304C186.96 193.048 186.78 192.744 186.66 192.392C186.54 192.032 186.48 191.644 186.48 191.228C186.48 190.732 186.556 190.3 186.708 189.932C186.86 189.564 187.06 189.26 187.308 189.02C187.556 188.78 187.836 188.6 188.148 188.48C188.46 188.36 188.78 188.3 189.108 188.3ZM190.452 190.676C190.452 190.204 190.328 189.832 190.08 189.56C189.832 189.28 189.504 189.14 189.096 189.14C188.864 189.14 188.652 189.184 188.46 189.272C188.276 189.36 188.116 189.476 187.98 189.62C187.844 189.764 187.736 189.928 187.656 190.112C187.576 190.296 187.524 190.484 187.5 190.676H190.452ZM192.588 191.228C192.588 190.724 192.668 190.288 192.828 189.92C192.988 189.552 193.208 189.248 193.488 189.008C193.768 188.768 194.092 188.592 194.46 188.48C194.836 188.36 195.236 188.3 195.66 188.3C195.932 188.3 196.2 188.32 196.464 188.36C196.736 188.392 197.024 188.456 197.328 188.552L197.1 189.404C196.836 189.308 196.592 189.248 196.368 189.224C196.152 189.192 195.932 189.176 195.708 189.176C195.42 189.176 195.148 189.216 194.892 189.296C194.636 189.368 194.412 189.488 194.22 189.656C194.036 189.816 193.888 190.028 193.776 190.292C193.664 190.548 193.608 190.86 193.608 191.228C193.608 191.58 193.66 191.884 193.764 192.14C193.868 192.388 194.012 192.596 194.196 192.764C194.388 192.924 194.616 193.044 194.88 193.124C195.144 193.204 195.436 193.244 195.756 193.244C196.012 193.244 196.256 193.232 196.488 193.208C196.728 193.176 196.988 193.112 197.268 193.016L197.412 193.844C197.132 193.948 196.848 194.02 196.56 194.06C196.272 194.108 195.96 194.132 195.624 194.132C195.176 194.132 194.764 194.072 194.388 193.952C194.02 193.824 193.7 193.64 193.428 193.4C193.164 193.16 192.956 192.86 192.804 192.5C192.66 192.132 192.588 191.708 192.588 191.228ZM200.916 188.432H203.268V189.26H200.916V191.852C200.916 192.132 200.936 192.36 200.976 192.536C201.016 192.712 201.08 192.856 201.168 192.968C201.264 193.072 201.384 193.144 201.528 193.184C201.672 193.224 201.848 193.244 202.056 193.244C202.344 193.244 202.576 193.22 202.752 193.172C202.928 193.124 203.096 193.06 203.256 192.98L203.4 193.82C203.288 193.868 203.108 193.932 202.86 194.012C202.62 194.092 202.32 194.132 201.96 194.132C201.544 194.132 201.204 194.084 200.94 193.988C200.676 193.892 200.468 193.748 200.316 193.556C200.172 193.364 200.072 193.128 200.016 192.848C199.96 192.56 199.932 192.228 199.932 191.852V189.26H198.756V188.432H199.932V186.872L200.916 186.704V188.432ZM206.508 187.568C206.3 187.568 206.12 187.496 205.968 187.352C205.816 187.208 205.74 187.012 205.74 186.764C205.74 186.516 205.816 186.32 205.968 186.176C206.12 186.032 206.3 185.96 206.508 185.96C206.724 185.96 206.904 186.032 207.048 186.176C207.2 186.32 207.276 186.516 207.276 186.764C207.276 187.012 207.2 187.208 207.048 187.352C206.904 187.496 206.724 187.568 206.508 187.568ZM206.256 189.26H204.648V188.432H207.24V191.852C207.24 192.404 207.316 192.776 207.468 192.968C207.62 193.152 207.848 193.244 208.152 193.244C208.384 193.244 208.596 193.216 208.788 193.16C208.988 193.104 209.144 193.044 209.256 192.98L209.4 193.82C209.352 193.844 209.284 193.876 209.196 193.916C209.108 193.948 209.004 193.98 208.884 194.012C208.772 194.044 208.644 194.072 208.5 194.096C208.364 194.12 208.22 194.132 208.068 194.132C207.716 194.132 207.424 194.084 207.192 193.988C206.96 193.892 206.772 193.748 206.628 193.556C206.492 193.364 206.396 193.128 206.34 192.848C206.284 192.56 206.256 192.228 206.256 191.852V189.26ZM215.52 191.216C215.52 191.656 215.456 192.056 215.328 192.416C215.208 192.768 215.036 193.072 214.812 193.328C214.588 193.584 214.32 193.784 214.008 193.928C213.696 194.064 213.356 194.132 212.988 194.132C212.628 194.132 212.292 194.064 211.98 193.928C211.676 193.784 211.412 193.584 211.188 193.328C210.964 193.072 210.788 192.768 210.66 192.416C210.54 192.056 210.48 191.656 210.48 191.216C210.48 190.776 210.54 190.376 210.66 190.016C210.788 189.656 210.964 189.352 211.188 189.104C211.412 188.848 211.676 188.652 211.98 188.516C212.292 188.372 212.628 188.3 212.988 188.3C213.356 188.3 213.696 188.372 214.008 188.516C214.32 188.652 214.588 188.848 214.812 189.104C215.036 189.352 215.208 189.656 215.328 190.016C215.456 190.376 215.52 190.776 215.52 191.216ZM214.5 191.216C214.5 190.584 214.364 190.088 214.092 189.728C213.82 189.36 213.452 189.176 212.988 189.176C212.532 189.176 212.168 189.36 211.896 189.728C211.632 190.088 211.5 190.584 211.5 191.216C211.5 191.84 211.632 192.336 211.896 192.704C212.168 193.064 212.532 193.244 212.988 193.244C213.452 193.244 213.82 193.064 214.092 192.704C214.364 192.336 214.5 191.84 214.5 191.216ZM216.852 188.588C217.212 188.5 217.568 188.432 217.92 188.384C218.28 188.336 218.616 188.312 218.928 188.312C219.672 188.312 220.232 188.504 220.608 188.888C220.992 189.272 221.184 189.888 221.184 190.736V194H220.2V190.916C220.2 190.556 220.168 190.264 220.104 190.04C220.04 189.816 219.948 189.644 219.828 189.524C219.716 189.396 219.576 189.308 219.408 189.26C219.248 189.212 219.072 189.188 218.88 189.188C218.72 189.188 218.548 189.2 218.364 189.224C218.188 189.24 218.016 189.264 217.848 189.296V194H216.852V188.588Z" fill="#B4B4B4"/>
<g filter="url(#filter3_d)">
<path d="M67.994 48V38.494L69.156 38.298V41.602C69.3427 41.5273 69.5527 41.4713 69.786 41.434C70.0193 41.3873 70.248 41.364 70.472 41.364C70.9667 41.364 71.3773 41.4387 71.704 41.588C72.04 41.728 72.306 41.9287 72.502 42.19C72.698 42.4513 72.838 42.764 72.922 43.128C73.006 43.492 73.048 43.8933 73.048 44.332V48H71.9V44.584C71.9 43.7813 71.788 43.2167 71.564 42.89C71.34 42.554 70.9387 42.386 70.36 42.386C70.1173 42.386 69.8793 42.414 69.646 42.47C69.422 42.5167 69.2587 42.5633 69.156 42.61V48H67.994ZM80.44 44.752C80.44 45.2653 80.3653 45.732 80.216 46.152C80.076 46.5627 79.8753 46.9173 79.614 47.216C79.3527 47.5147 79.04 47.748 78.676 47.916C78.312 48.0747 77.9153 48.154 77.486 48.154C77.066 48.154 76.674 48.0747 76.31 47.916C75.9553 47.748 75.6473 47.5147 75.386 47.216C75.1247 46.9173 74.9193 46.5627 74.77 46.152C74.63 45.732 74.56 45.2653 74.56 44.752C74.56 44.2387 74.63 43.772 74.77 43.352C74.9193 42.932 75.1247 42.5773 75.386 42.288C75.6473 41.9893 75.9553 41.7607 76.31 41.602C76.674 41.434 77.066 41.35 77.486 41.35C77.9153 41.35 78.312 41.434 78.676 41.602C79.04 41.7607 79.3527 41.9893 79.614 42.288C79.8753 42.5773 80.076 42.932 80.216 43.352C80.3653 43.772 80.44 44.2387 80.44 44.752ZM79.25 44.752C79.25 44.0147 79.0913 43.436 78.774 43.016C78.4567 42.5867 78.0273 42.372 77.486 42.372C76.954 42.372 76.5293 42.5867 76.212 43.016C75.904 43.436 75.75 44.0147 75.75 44.752C75.75 45.48 75.904 46.0587 76.212 46.488C76.5293 46.908 76.954 47.118 77.486 47.118C78.0273 47.118 78.4567 46.908 78.774 46.488C79.0913 46.0587 79.25 45.48 79.25 44.752ZM81.574 41.686C82.134 41.4713 82.6613 41.364 83.156 41.364C83.4267 41.364 83.6787 41.406 83.912 41.49C84.1547 41.5647 84.36 41.686 84.528 41.854C84.9293 41.5273 85.3587 41.364 85.816 41.364C86.04 41.364 86.25 41.406 86.446 41.49C86.6513 41.574 86.8287 41.7 86.978 41.868C87.1367 42.036 87.2627 42.246 87.356 42.498C87.4493 42.75 87.496 43.044 87.496 43.38V48H86.446V43.352C86.446 43.016 86.3713 42.7593 86.222 42.582C86.0727 42.4047 85.886 42.316 85.662 42.316C85.55 42.316 85.4333 42.344 85.312 42.4C85.1907 42.456 85.0787 42.5447 84.976 42.666C85.032 42.8807 85.06 43.1187 85.06 43.38V45.494H84.01V43.366C84.01 43.0393 83.9587 42.7827 83.856 42.596C83.7533 42.4093 83.5527 42.316 83.254 42.316C83.0673 42.316 82.8573 42.358 82.624 42.442V48H81.574V41.686ZM91.626 41.35C92.5033 41.35 93.18 41.6253 93.656 42.176C94.132 42.7173 94.37 43.5433 94.37 44.654V45.06H89.722C89.7687 45.732 89.988 46.2453 90.38 46.6C90.7813 46.9453 91.3413 47.118 92.06 47.118C92.4707 47.118 92.8207 47.0853 93.11 47.02C93.3993 46.9547 93.6187 46.8847 93.768 46.81L93.922 47.79C93.782 47.8647 93.53 47.944 93.166 48.028C92.802 48.112 92.3913 48.154 91.934 48.154C91.374 48.154 90.8793 48.07 90.45 47.902C90.03 47.7247 89.68 47.4867 89.4 47.188C89.12 46.8893 88.91 46.5347 88.77 46.124C88.63 45.704 88.56 45.2513 88.56 44.766C88.56 44.1873 88.6487 43.6833 88.826 43.254C89.0033 42.8247 89.2367 42.47 89.526 42.19C89.8153 41.91 90.142 41.7 90.506 41.56C90.87 41.42 91.2433 41.35 91.626 41.35ZM93.194 44.122C93.194 43.5713 93.0493 43.1373 92.76 42.82C92.4707 42.4933 92.088 42.33 91.612 42.33C91.3413 42.33 91.094 42.3813 90.87 42.484C90.6553 42.5867 90.4687 42.722 90.31 42.89C90.1513 43.058 90.0253 43.2493 89.932 43.464C89.8387 43.6787 89.778 43.898 89.75 44.122H93.194Z" fill="#9AB8C9"/>
</g>
<g filter="url(#filter4_d)">
<path d="M18.5 35H5.5C4.67188 35 4 35.6719 4 36.5V47.5C4 48.3281 4.67188 49 5.5 49H18.5C19.3281 49 20 48.3281 20 47.5V36.5C20 35.6719 19.3281 35 18.5 35ZM18.5 47.3125C18.5 47.4156 18.4156 47.5 18.3125 47.5H5.6875C5.58438 47.5 5.5 47.4156 5.5 47.3125V40H18.5V47.3125Z" fill="#9AB8C9"/>
</g>
<g filter="url(#filter5_d)">
<rect x="4" y="52" width="91" height="103" rx="2" fill="#F2F2F2"/>
</g>
<rect x="68" y="130" width="23" height="12" rx="1" fill="#53BA5D"/>
<rect x="8.5" y="130.5" width="57" height="11" rx="0.5" stroke="#B4B4B4"/>
<rect x="73" y="55" width="18" height="7" rx="1" fill="#B4B4B4"/>
<rect x="13" y="88" width="73" height="5" rx="1" fill="#B4B4B4"/>
<rect x="28" y="73" width="43" height="12" rx="1" fill="#B4B4B4"/>
<g filter="url(#filter6_d)">
<path d="M209.5 1H196.5C195.672 1 195 1.67188 195 2.5V13.5C195 14.3281 195.672 15 196.5 15H209.5C210.328 15 211 14.3281 211 13.5V2.5C211 1.67188 210.328 1 209.5 1ZM209.5 13.3125C209.5 13.4156 209.416 13.5 209.312 13.5H196.688C196.584 13.5 196.5 13.4156 196.5 13.3125V6H209.5V13.3125Z" fill="#9AB8C9"/>
</g>
<g filter="url(#filter7_d)">
<path d="M254.57 13.174C254.859 13.174 255.116 13.1647 255.34 13.146C255.573 13.1273 255.765 13.104 255.914 13.076V11.144C255.765 11.0973 255.583 11.06 255.368 11.032C255.163 11.004 254.943 10.99 254.71 10.99C254.495 10.99 254.285 11.0087 254.08 11.046C253.875 11.074 253.693 11.13 253.534 11.214C253.375 11.298 253.245 11.41 253.142 11.55C253.039 11.6807 252.988 11.8487 252.988 12.054C252.988 12.474 253.128 12.768 253.408 12.936C253.697 13.0947 254.085 13.174 254.57 13.174ZM254.458 7.35C254.943 7.35 255.349 7.41067 255.676 7.532C256.012 7.65333 256.283 7.82133 256.488 8.036C256.693 8.25067 256.838 8.512 256.922 8.82C257.006 9.128 257.048 9.464 257.048 9.828V13.888C256.777 13.9347 256.418 13.9907 255.97 14.056C255.531 14.1213 255.079 14.154 254.612 14.154C254.257 14.154 253.912 14.1213 253.576 14.056C253.24 14 252.941 13.8973 252.68 13.748C252.419 13.5893 252.209 13.3747 252.05 13.104C251.891 12.8333 251.812 12.488 251.812 12.068C251.812 11.6947 251.891 11.382 252.05 11.13C252.218 10.8687 252.428 10.6587 252.68 10.5C252.941 10.3413 253.235 10.2293 253.562 10.164C253.898 10.0893 254.234 10.052 254.57 10.052C255.027 10.052 255.475 10.1033 255.914 10.206V9.884C255.914 9.688 255.891 9.50133 255.844 9.324C255.807 9.13733 255.727 8.96933 255.606 8.82C255.494 8.67067 255.335 8.554 255.13 8.47C254.934 8.37667 254.677 8.33 254.36 8.33C253.959 8.33 253.609 8.358 253.31 8.414C253.011 8.47 252.783 8.526 252.624 8.582L252.484 7.63C252.643 7.55533 252.904 7.49 253.268 7.434C253.641 7.378 254.038 7.35 254.458 7.35ZM260.156 7.742C260.296 7.658 260.497 7.574 260.758 7.49C261.029 7.39667 261.327 7.35 261.654 7.35C262.093 7.35 262.485 7.434 262.83 7.602C263.175 7.77 263.465 8.00333 263.698 8.302C263.941 8.60067 264.123 8.96 264.244 9.38C264.375 9.79067 264.44 10.248 264.44 10.752C264.44 11.2747 264.365 11.746 264.216 12.166C264.067 12.586 263.857 12.9453 263.586 13.244C263.315 13.5333 262.989 13.7573 262.606 13.916C262.223 14.0747 261.799 14.154 261.332 14.154C260.819 14.154 260.361 14.1167 259.96 14.042C259.559 13.9673 259.237 13.8927 258.994 13.818V4.494L260.156 4.298V7.742ZM260.156 12.992C260.333 13.0387 260.511 13.076 260.688 13.104C260.865 13.1227 261.033 13.132 261.192 13.132C261.836 13.132 262.34 12.936 262.704 12.544C263.068 12.1427 263.25 11.5453 263.25 10.752C263.25 10.416 263.217 10.1033 263.152 9.814C263.087 9.51533 262.984 9.26333 262.844 9.058C262.704 8.84333 262.522 8.67533 262.298 8.554C262.083 8.43267 261.822 8.372 261.514 8.372C261.243 8.372 260.982 8.428 260.73 8.54C260.478 8.64267 260.287 8.75467 260.156 8.876V12.992ZM271.44 10.752C271.44 11.2653 271.365 11.732 271.216 12.152C271.076 12.5627 270.875 12.9173 270.614 13.216C270.353 13.5147 270.04 13.748 269.676 13.916C269.312 14.0747 268.915 14.154 268.486 14.154C268.066 14.154 267.674 14.0747 267.31 13.916C266.955 13.748 266.647 13.5147 266.386 13.216C266.125 12.9173 265.919 12.5627 265.77 12.152C265.63 11.732 265.56 11.2653 265.56 10.752C265.56 10.2387 265.63 9.772 265.77 9.352C265.919 8.932 266.125 8.57733 266.386 8.288C266.647 7.98933 266.955 7.76067 267.31 7.602C267.674 7.434 268.066 7.35 268.486 7.35C268.915 7.35 269.312 7.434 269.676 7.602C270.04 7.76067 270.353 7.98933 270.614 8.288C270.875 8.57733 271.076 8.932 271.216 9.352C271.365 9.772 271.44 10.2387 271.44 10.752ZM270.25 10.752C270.25 10.0147 270.091 9.436 269.774 9.016C269.457 8.58667 269.027 8.372 268.486 8.372C267.954 8.372 267.529 8.58667 267.212 9.016C266.904 9.436 266.75 10.0147 266.75 10.752C266.75 11.48 266.904 12.0587 267.212 12.488C267.529 12.908 267.954 13.118 268.486 13.118C269.027 13.118 269.457 12.908 269.774 12.488C270.091 12.0587 270.25 11.48 270.25 10.752ZM278.006 13.818C277.754 13.8833 277.418 13.9533 276.998 14.028C276.587 14.1027 276.102 14.14 275.542 14.14C275.047 14.14 274.637 14.07 274.31 13.93C273.983 13.7807 273.717 13.5753 273.512 13.314C273.307 13.0433 273.162 12.726 273.078 12.362C272.994 11.998 272.952 11.5967 272.952 11.158V7.504H274.1V10.906C274.1 11.7087 274.217 12.278 274.45 12.614C274.693 12.95 275.094 13.118 275.654 13.118C275.775 13.118 275.897 13.1133 276.018 13.104C276.149 13.0947 276.27 13.0853 276.382 13.076C276.494 13.0573 276.592 13.0433 276.676 13.034C276.76 13.0153 276.816 13.0013 276.844 12.992V7.504H278.006V13.818ZM282.402 7.504H285.146V8.47H282.402V11.494C282.402 11.8207 282.425 12.0867 282.472 12.292C282.519 12.4973 282.593 12.6653 282.696 12.796C282.808 12.9173 282.948 13.0013 283.116 13.048C283.284 13.0947 283.489 13.118 283.732 13.118C284.068 13.118 284.339 13.09 284.544 13.034C284.749 12.978 284.945 12.9033 285.132 12.81L285.3 13.79C285.169 13.846 284.959 13.9207 284.67 14.014C284.39 14.1073 284.04 14.154 283.62 14.154C283.135 14.154 282.738 14.098 282.43 13.986C282.122 13.874 281.879 13.706 281.702 13.482C281.534 13.258 281.417 12.9827 281.352 12.656C281.287 12.32 281.254 11.9327 281.254 11.494V8.47H279.882V7.504H281.254V5.684L282.402 5.488V7.504Z" fill="#9AB8C9"/>
</g>
<g filter="url(#filter8_d)">
<rect x="195" y="18" width="91" height="103" rx="2" fill="#F2F2F2"/>
</g>
<rect x="219" y="35" width="43" height="12" rx="1" fill="#B4B4B4"/>
<rect x="209" y="55" width="73" height="5" rx="1" fill="#B4B4B4"/>
<rect x="199" y="63" width="83" height="5" rx="1" fill="#B4B4B4"/>
<rect x="199" y="71" width="83" height="5" rx="1" fill="#B4B4B4"/>
<rect x="199" y="79" width="83" height="5" rx="1" fill="#B4B4B4"/>
<rect x="199" y="87" width="55" height="5" rx="1" fill="#B4B4B4"/>
<rect x="270" y="102" width="12" height="5" rx="1" fill="#B4B4B4"/>
<g filter="url(#filter9_d)">
<path d="M91 136H117.956C120.717 136 122.956 138.239 122.956 141V201C122.956 203.761 125.195 206 127.956 206H151.225" stroke="#B4B4B4"/>
<path d="M156.823 206.374L152.556 210.153C152.234 210.439 151.725 210.21 151.725 209.779L151.725 202.221C151.725 201.79 152.234 201.561 152.556 201.847L156.823 205.626C157.048 205.825 157.048 206.175 156.823 206.374Z" stroke="#B4B4B4"/>
</g>
<g filter="url(#filter10_d)">
<path d="M91 58.5H136.408C139.17 58.5 141.408 56.2614 141.408 53.5V28C141.408 25.2386 143.647 23 146.408 23H188" stroke="#B4B4B4"/>
<path d="M193.598 23.3743L189.331 27.153C189.009 27.4387 188.5 27.2097 188.5 26.7787L188.5 19.2213C188.5 18.7903 189.009 18.5613 189.331 18.847L193.598 22.6257C193.823 22.8246 193.823 23.1753 193.598 23.3743Z" stroke="#B4B4B4"/>
</g>
<defs>
<filter id="filter0_d" x="154" y="147" width="22" height="24" filterUnits="userSpaceOnUse" color-interpolation-filters="sRGB">
<feFlood flood-opacity="0" result="BackgroundImageFix"/>
<feColorMatrix in="SourceAlpha" type="matrix" values="0 0 0 0 0 0 0 0 0 0 0 0 0 0 0 0 0 0 127 0"/>
<feOffset dy="4"/>
<feGaussianBlur stdDeviation="2"/>
<feColorMatrix type="matrix" values="0 0 0 0 0 0 0 0 0 0 0 0 0 0 0 0 0 0 0.25 0"/>
<feBlend mode="normal" in2="BackgroundImageFix" result="effect1_dropShadow"/>
<feBlend mode="normal" in="SourceGraphic" in2="effect1_dropShadow" result="shape"/>
</filter>
<filter id="filter1_d" x="182.56" y="152.298" width="69.74" height="17.87" filterUnits="userSpaceOnUse" color-interpolation-filters="sRGB">
<feFlood flood-opacity="0" result="BackgroundImageFix"/>
<feColorMatrix in="SourceAlpha" type="matrix" values="0 0 0 0 0 0 0 0 0 0 0 0 0 0 0 0 0 0 127 0"/>
<feOffset dy="4"/>
<feGaussianBlur stdDeviation="2"/>
<feColorMatrix type="matrix" values="0 0 0 0 0 0 0 0 0 0 0 0 0 0 0 0 0 0 0.25 0"/>
<feBlend mode="normal" in2="BackgroundImageFix" result="effect1_dropShadow"/>
<feBlend mode="normal" in="SourceGraphic" in2="effect1_dropShadow" result="shape"/>
</filter>
<filter id="filter2_d" x="154" y="166" width="99" height="58" filterUnits="userSpaceOnUse" color-interpolation-filters="sRGB">
<feFlood flood-opacity="0" result="BackgroundImageFix"/>
<feColorMatrix in="SourceAlpha" type="matrix" values="0 0 0 0 0 0 0 0 0 0 0 0 0 0 0 0 0 0 127 0"/>
<feOffset dy="4"/>
<feGaussianBlur stdDeviation="2"/>
<feColorMatrix type="matrix" values="0 0 0 0 0 0 0 0 0 0 0 0 0 0 0 0 0 0 0.25 0"/>
<feBlend mode="normal" in2="BackgroundImageFix" result="effect1_dropShadow"/>
<feBlend mode="normal" in="SourceGraphic" in2="effect1_dropShadow" result="shape"/>
</filter>
<filter id="filter3_d" x="63.994" y="38.298" width="34.376" height="17.856" filterUnits="userSpaceOnUse" color-interpolation-filters="sRGB">
<feFlood flood-opacity="0" result="BackgroundImageFix"/>
<feColorMatrix in="SourceAlpha" type="matrix" values="0 0 0 0 0 0 0 0 0 0 0 0 0 0 0 0 0 0 127 0"/>
<feOffset dy="4"/>
<feGaussianBlur stdDeviation="2"/>
<feColorMatrix type="matrix" values="0 0 0 0 0 0 0 0 0 0 0 0 0 0 0 0 0 0 0.25 0"/>
<feBlend mode="normal" in2="BackgroundImageFix" result="effect1_dropShadow"/>
<feBlend mode="normal" in="SourceGraphic" in2="effect1_dropShadow" result="shape"/>
</filter>
<filter id="filter4_d" x="0" y="34" width="24" height="24" filterUnits="userSpaceOnUse" color-interpolation-filters="sRGB">
<feFlood flood-opacity="0" result="BackgroundImageFix"/>
<feColorMatrix in="SourceAlpha" type="matrix" values="0 0 0 0 0 0 0 0 0 0 0 0 0 0 0 0 0 0 127 0"/>
<feOffset dy="4"/>
<feGaussianBlur stdDeviation="2"/>
<feColorMatrix type="matrix" values="0 0 0 0 0 0 0 0 0 0 0 0 0 0 0 0 0 0 0.25 0"/>
<feBlend mode="normal" in2="BackgroundImageFix" result="effect1_dropShadow"/>
<feBlend mode="normal" in="SourceGraphic" in2="effect1_dropShadow" result="shape"/>
</filter>
<filter id="filter5_d" x="0" y="52" width="99" height="111" filterUnits="userSpaceOnUse" color-interpolation-filters="sRGB">
<feFlood flood-opacity="0" result="BackgroundImageFix"/>
<feColorMatrix in="SourceAlpha" type="matrix" values="0 0 0 0 0 0 0 0 0 0 0 0 0 0 0 0 0 0 127 0"/>
<feOffset dy="4"/>
<feGaussianBlur stdDeviation="2"/>
<feColorMatrix type="matrix" values="0 0 0 0 0 0 0 0 0 0 0 0 0 0 0 0 0 0 0.25 0"/>
<feBlend mode="normal" in2="BackgroundImageFix" result="effect1_dropShadow"/>
<feBlend mode="normal" in="SourceGraphic" in2="effect1_dropShadow" result="shape"/>
</filter>
<filter id="filter6_d" x="191" y="0" width="24" height="24" filterUnits="userSpaceOnUse" color-interpolation-filters="sRGB">
<feFlood flood-opacity="0" result="BackgroundImageFix"/>
<feColorMatrix in="SourceAlpha" type="matrix" values="0 0 0 0 0 0 0 0 0 0 0 0 0 0 0 0 0 0 127 0"/>
<feOffset dy="4"/>
<feGaussianBlur stdDeviation="2"/>
<feColorMatrix type="matrix" values="0 0 0 0 0 0 0 0 0 0 0 0 0 0 0 0 0 0 0.25 0"/>
<feBlend mode="normal" in2="BackgroundImageFix" result="effect1_dropShadow"/>
<feBlend mode="normal" in="SourceGraphic" in2="effect1_dropShadow" result="shape"/>
</filter>
<filter id="filter7_d" x="247.812" y="4.298" width="41.488" height="17.856" filterUnits="userSpaceOnUse" color-interpolation-filters="sRGB">
<feFlood flood-opacity="0" result="BackgroundImageFix"/>
<feColorMatrix in="SourceAlpha" type="matrix" values="0 0 0 0 0 0 0 0 0 0 0 0 0 0 0 0 0 0 127 0"/>
<feOffset dy="4"/>
<feGaussianBlur stdDeviation="2"/>
<feColorMatrix type="matrix" values="0 0 0 0 0 0 0 0 0 0 0 0 0 0 0 0 0 0 0.25 0"/>
<feBlend mode="normal" in2="BackgroundImageFix" result="effect1_dropShadow"/>
<feBlend mode="normal" in="SourceGraphic" in2="effect1_dropShadow" result="shape"/>
</filter>
<filter id="filter8_d" x="191" y="18" width="99" height="111" filterUnits="userSpaceOnUse" color-interpolation-filters="sRGB">
<feFlood flood-opacity="0" result="BackgroundImageFix"/>
<feColorMatrix in="SourceAlpha" type="matrix" values="0 0 0 0 0 0 0 0 0 0 0 0 0 0 0 0 0 0 127 0"/>
<feOffset dy="4"/>
<feGaussianBlur stdDeviation="2"/>
<feColorMatrix type="matrix" values="0 0 0 0 0 0 0 0 0 0 0 0 0 0 0 0 0 0 0.25 0"/>
<feBlend mode="normal" in2="BackgroundImageFix" result="effect1_dropShadow"/>
<feBlend mode="normal" in="SourceGraphic" in2="effect1_dropShadow" result="shape"/>
</filter>
<filter id="filter9_d" x="87" y="135.5" width="74.4917" height="83.2806" filterUnits="userSpaceOnUse" color-interpolation-filters="sRGB">
<feFlood flood-opacity="0" result="BackgroundImageFix"/>
<feColorMatrix in="SourceAlpha" type="matrix" values="0 0 0 0 0 0 0 0 0 0 0 0 0 0 0 0 0 0 127 0"/>
<feOffset dy="4"/>
<feGaussianBlur stdDeviation="2"/>
<feColorMatrix type="matrix" values="0 0 0 0 0 0 0 0 0 0 0 0 0 0 0 0 0 0 0.25 0"/>
<feBlend mode="normal" in2="BackgroundImageFix" result="effect1_dropShadow"/>
<feBlend mode="normal" in="SourceGraphic" in2="effect1_dropShadow" result="shape"/>
</filter>
<filter id="filter10_d" x="87" y="18.2194" width="111.267" height="48.7806" filterUnits="userSpaceOnUse" color-interpolation-filters="sRGB">
<feFlood flood-opacity="0" result="BackgroundImageFix"/>
<feColorMatrix in="SourceAlpha" type="matrix" values="0 0 0 0 0 0 0 0 0 0 0 0 0 0 0 0 0 0 127 0"/>
<feOffset dy="4"/>
<feGaussianBlur stdDeviation="2"/>
<feColorMatrix type="matrix" values="0 0 0 0 0 0 0 0 0 0 0 0 0 0 0 0 0 0 0.25 0"/>
<feBlend mode="normal" in2="BackgroundImageFix" result="effect1_dropShadow"/>
<feBlend mode="normal" in="SourceGraphic" in2="effect1_dropShadow" result="shape"/>
</filter>
</defs>
</svg>
